ISO-10303-21;
HEADER;
/* Generated by software containing ST-Developer
 * from STEP Tools, Inc. (www.steptools.com) 
 */

FILE_DESCRIPTION(
/* description */ (''),
/* implementation_level */ '2;1');

FILE_NAME(
/* name */ 'B1 Bracket.step',
/* time_stamp */ '2025-12-14T13:07:04+01:00',
/* author */ (''),
/* organization */ (''),
/* preprocessor_version */ 'ST-DEVELOPER v20.1',
/* originating_system */ 'Autodesk Translation Framework v14.21.0.0',
/* authorisation */ '');

FILE_SCHEMA (('AUTOMOTIVE_DESIGN { 1 0 10303 214 3 1 1 }'));
ENDSEC;

DATA;
#10=MECHANICAL_DESIGN_GEOMETRIC_PRESENTATION_REPRESENTATION('',(#17),#1512);
#11=ITEM_DEFINED_TRANSFORMATION($,$,#920,#998);
#12=(
REPRESENTATION_RELATIONSHIP($,$,#1523,#1522)
REPRESENTATION_RELATIONSHIP_WITH_TRANSFORMATION(#11)
SHAPE_REPRESENTATION_RELATIONSHIP()
);
#13=CONTEXT_DEPENDENT_SHAPE_REPRESENTATION(#12,#1521);
#14=NEXT_ASSEMBLY_USAGE_OCCURRENCE('Bracket:1','Bracket:1','Bracket:1',
#1525,#1526,'Bracket:1');
#15=SHAPE_REPRESENTATION_RELATIONSHIP('SRR','None',#1523,#16);
#16=ADVANCED_BREP_SHAPE_REPRESENTATION('',(#18),#1511);
#17=STYLED_ITEM('',(#1536),#18);
#18=MANIFOLD_SOLID_BREP('Body3',#906);
#19=CYLINDRICAL_SURFACE('',#941,1.65);
#20=CYLINDRICAL_SURFACE('',#942,2.);
#21=CYLINDRICAL_SURFACE('',#945,1.65);
#22=CYLINDRICAL_SURFACE('',#946,1.65);
#23=CYLINDRICAL_SURFACE('',#947,1.99999999999999);
#24=CYLINDRICAL_SURFACE('',#958,0.500000000000002);
#25=CYLINDRICAL_SURFACE('',#961,2.);
#26=CYLINDRICAL_SURFACE('',#969,0.499999999999976);
#27=CYLINDRICAL_SURFACE('',#971,2.);
#28=CYLINDRICAL_SURFACE('',#979,2.00000000000001);
#29=CYLINDRICAL_SURFACE('',#987,0.500000000000004);
#30=CYLINDRICAL_SURFACE('',#988,2.);
#31=CYLINDRICAL_SURFACE('',#995,0.5);
#32=FACE_BOUND('',#122,.T.);
#33=FACE_BOUND('',#123,.T.);
#34=FACE_BOUND('',#124,.T.);
#35=FACE_BOUND('',#135,.T.);
#36=FACE_BOUND('',#136,.T.);
#37=FACE_BOUND('',#137,.T.);
#38=FACE_BOUND('',#153,.T.);
#39=FACE_BOUND('',#159,.T.);
#40=FACE_BOUND('',#163,.T.);
#41=FACE_BOUND('',#167,.T.);
#42=CIRCLE('',#924,1.65);
#43=CIRCLE('',#925,1.65);
#44=CIRCLE('',#926,1.65);
#45=CIRCLE('',#937,1.65);
#46=CIRCLE('',#938,1.65);
#47=CIRCLE('',#939,1.65);
#48=CIRCLE('',#943,2.);
#49=CIRCLE('',#944,2.);
#50=CIRCLE('',#948,1.99999999999999);
#51=CIRCLE('',#949,1.99999999999999);
#52=CIRCLE('',#952,2.);
#53=CIRCLE('',#953,0.500000000000002);
#54=CIRCLE('',#955,0.499999999999976);
#55=CIRCLE('',#956,2.);
#56=CIRCLE('',#959,0.5);
#57=CIRCLE('',#962,1.99999999999999);
#58=CIRCLE('',#966,0.500000000000007);
#59=CIRCLE('',#972,2.);
#60=CIRCLE('',#980,2.00000000000001);
#61=CIRCLE('',#981,2.);
#62=CIRCLE('',#984,0.500000000000007);
#63=CIRCLE('',#986,0.500000000000007);
#64=CIRCLE('',#989,2.);
#65=CIRCLE('',#990,2.);
#66=CIRCLE('',#992,0.5);
#67=CIRCLE('',#994,0.5);
#68=FACE_OUTER_BOUND('',#119,.T.);
#69=FACE_OUTER_BOUND('',#120,.T.);
#70=FACE_OUTER_BOUND('',#121,.T.);
#71=FACE_OUTER_BOUND('',#125,.T.);
#72=FACE_OUTER_BOUND('',#126,.T.);
#73=FACE_OUTER_BOUND('',#127,.T.);
#74=FACE_OUTER_BOUND('',#128,.T.);
#75=FACE_OUTER_BOUND('',#129,.T.);
#76=FACE_OUTER_BOUND('',#130,.T.);
#77=FACE_OUTER_BOUND('',#131,.T.);
#78=FACE_OUTER_BOUND('',#132,.T.);
#79=FACE_OUTER_BOUND('',#133,.T.);
#80=FACE_OUTER_BOUND('',#134,.T.);
#81=FACE_OUTER_BOUND('',#138,.T.);
#82=FACE_OUTER_BOUND('',#139,.T.);
#83=FACE_OUTER_BOUND('',#140,.T.);
#84=FACE_OUTER_BOUND('',#141,.T.);
#85=FACE_OUTER_BOUND('',#142,.T.);
#86=FACE_OUTER_BOUND('',#143,.T.);
#87=FACE_OUTER_BOUND('',#144,.T.);
#88=FACE_OUTER_BOUND('',#145,.T.);
#89=FACE_OUTER_BOUND('',#146,.T.);
#90=FACE_OUTER_BOUND('',#147,.T.);
#91=FACE_OUTER_BOUND('',#148,.T.);
#92=FACE_OUTER_BOUND('',#149,.T.);
#93=FACE_OUTER_BOUND('',#150,.T.);
#94=FACE_OUTER_BOUND('',#151,.T.);
#95=FACE_OUTER_BOUND('',#152,.T.);
#96=FACE_OUTER_BOUND('',#154,.T.);
#97=FACE_OUTER_BOUND('',#155,.T.);
#98=FACE_OUTER_BOUND('',#156,.T.);
#99=FACE_OUTER_BOUND('',#157,.T.);
#100=FACE_OUTER_BOUND('',#158,.T.);
#101=FACE_OUTER_BOUND('',#160,.T.);
#102=FACE_OUTER_BOUND('',#161,.T.);
#103=FACE_OUTER_BOUND('',#162,.T.);
#104=FACE_OUTER_BOUND('',#164,.T.);
#105=FACE_OUTER_BOUND('',#165,.T.);
#106=FACE_OUTER_BOUND('',#166,.T.);
#107=FACE_OUTER_BOUND('',#168,.T.);
#108=FACE_OUTER_BOUND('',#169,.T.);
#109=FACE_OUTER_BOUND('',#170,.T.);
#110=FACE_OUTER_BOUND('',#171,.T.);
#111=FACE_OUTER_BOUND('',#172,.T.);
#112=FACE_OUTER_BOUND('',#173,.T.);
#113=FACE_OUTER_BOUND('',#174,.T.);
#114=FACE_OUTER_BOUND('',#175,.T.);
#115=FACE_OUTER_BOUND('',#176,.T.);
#116=FACE_OUTER_BOUND('',#177,.T.);
#117=FACE_OUTER_BOUND('',#178,.T.);
#118=FACE_OUTER_BOUND('',#179,.T.);
#119=EDGE_LOOP('',(#571,#572,#573,#574));
#120=EDGE_LOOP('',(#575,#576,#577,#578));
#121=EDGE_LOOP('',(#579,#580,#581,#582,#583,#584,#585,#586,#587,#588));
#122=EDGE_LOOP('',(#589));
#123=EDGE_LOOP('',(#590));
#124=EDGE_LOOP('',(#591));
#125=EDGE_LOOP('',(#592,#593,#594,#595));
#126=EDGE_LOOP('',(#596,#597,#598,#599));
#127=EDGE_LOOP('',(#600,#601,#602,#603));
#128=EDGE_LOOP('',(#604,#605,#606,#607,#608,#609,#610));
#129=EDGE_LOOP('',(#611,#612,#613,#614));
#130=EDGE_LOOP('',(#615,#616,#617,#618));
#131=EDGE_LOOP('',(#619,#620,#621,#622,#623,#624,#625));
#132=EDGE_LOOP('',(#626,#627,#628,#629));
#133=EDGE_LOOP('',(#630,#631,#632,#633));
#134=EDGE_LOOP('',(#634,#635,#636,#637,#638,#639,#640,#641,#642,#643));
#135=EDGE_LOOP('',(#644));
#136=EDGE_LOOP('',(#645));
#137=EDGE_LOOP('',(#646));
#138=EDGE_LOOP('',(#647,#648,#649,#650));
#139=EDGE_LOOP('',(#651,#652,#653,#654));
#140=EDGE_LOOP('',(#655,#656,#657,#658));
#141=EDGE_LOOP('',(#659,#660,#661,#662));
#142=EDGE_LOOP('',(#663,#664,#665,#666));
#143=EDGE_LOOP('',(#667,#668,#669,#670));
#144=EDGE_LOOP('',(#671,#672,#673,#674));
#145=EDGE_LOOP('',(#675,#676,#677,#678,#679,#680,#681,#682));
#146=EDGE_LOOP('',(#683,#684,#685,#686,#687,#688,#689,#690));
#147=EDGE_LOOP('',(#691,#692,#693,#694,#695,#696,#697));
#148=EDGE_LOOP('',(#698,#699,#700,#701));
#149=EDGE_LOOP('',(#702,#703,#704,#705,#706,#707,#708));
#150=EDGE_LOOP('',(#709,#710,#711,#712));
#151=EDGE_LOOP('',(#713,#714,#715,#716));
#152=EDGE_LOOP('',(#717,#718,#719,#720));
#153=EDGE_LOOP('',(#721));
#154=EDGE_LOOP('',(#722,#723,#724,#725));
#155=EDGE_LOOP('',(#726,#727,#728,#729));
#156=EDGE_LOOP('',(#730,#731,#732,#733));
#157=EDGE_LOOP('',(#734,#735,#736,#737));
#158=EDGE_LOOP('',(#738,#739,#740,#741));
#159=EDGE_LOOP('',(#742));
#160=EDGE_LOOP('',(#743,#744,#745,#746));
#161=EDGE_LOOP('',(#747,#748,#749,#750));
#162=EDGE_LOOP('',(#751,#752,#753,#754));
#163=EDGE_LOOP('',(#755));
#164=EDGE_LOOP('',(#756,#757,#758,#759));
#165=EDGE_LOOP('',(#760,#761,#762,#763));
#166=EDGE_LOOP('',(#764,#765,#766,#767));
#167=EDGE_LOOP('',(#768));
#168=EDGE_LOOP('',(#769,#770,#771,#772));
#169=EDGE_LOOP('',(#773,#774,#775,#776));
#170=EDGE_LOOP('',(#777,#778,#779,#780));
#171=EDGE_LOOP('',(#781,#782,#783,#784));
#172=EDGE_LOOP('',(#785,#786,#787,#788));
#173=EDGE_LOOP('',(#789,#790,#791,#792));
#174=EDGE_LOOP('',(#793,#794,#795,#796));
#175=EDGE_LOOP('',(#797,#798,#799,#800));
#176=EDGE_LOOP('',(#801,#802,#803,#804));
#177=EDGE_LOOP('',(#805,#806,#807,#808));
#178=EDGE_LOOP('',(#809,#810,#811,#812));
#179=EDGE_LOOP('',(#813,#814,#815,#816));
#180=LINE('',#1261,#277);
#181=LINE('',#1263,#278);
#182=LINE('',#1265,#279);
#183=LINE('',#1266,#280);
#184=LINE('',#1269,#281);
#185=LINE('',#1271,#282);
#186=LINE('',#1272,#283);
#187=LINE('',#1275,#284);
#188=LINE('',#1277,#285);
#189=LINE('',#1279,#286);
#190=LINE('',#1281,#287);
#191=LINE('',#1283,#288);
#192=LINE('',#1285,#289);
#193=LINE('',#1287,#290);
#194=LINE('',#1288,#291);
#195=LINE('',#1297,#292);
#196=LINE('',#1299,#293);
#197=LINE('',#1300,#294);
#198=LINE('',#1303,#295);
#199=LINE('',#1304,#296);
#200=LINE('',#1308,#297);
#201=LINE('',#1310,#298);
#202=LINE('',#1312,#299);
#203=LINE('',#1313,#300);
#204=LINE('',#1316,#301);
#205=LINE('',#1318,#302);
#206=LINE('',#1320,#303);
#207=LINE('',#1322,#304);
#208=LINE('',#1324,#305);
#209=LINE('',#1325,#306);
#210=LINE('',#1328,#307);
#211=LINE('',#1329,#308);
#212=LINE('',#1333,#309);
#213=LINE('',#1335,#310);
#214=LINE('',#1337,#311);
#215=LINE('',#1338,#312);
#216=LINE('',#1341,#313);
#217=LINE('',#1343,#314);
#218=LINE('',#1345,#315);
#219=LINE('',#1347,#316);
#220=LINE('',#1349,#317);
#221=LINE('',#1350,#318);
#222=LINE('',#1353,#319);
#223=LINE('',#1354,#320);
#224=LINE('',#1356,#321);
#225=LINE('',#1359,#322);
#226=LINE('',#1361,#323);
#227=LINE('',#1363,#324);
#228=LINE('',#1365,#325);
#229=LINE('',#1366,#326);
#230=LINE('',#1374,#327);
#231=LINE('',#1376,#328);
#232=LINE('',#1381,#329);
#233=LINE('',#1384,#330);
#234=LINE('',#1386,#331);
#235=LINE('',#1391,#332);
#236=LINE('',#1395,#333);
#237=LINE('',#1396,#334);
#238=LINE('',#1401,#335);
#239=LINE('',#1403,#336);
#240=LINE('',#1405,#337);
#241=LINE('',#1408,#338);
#242=LINE('',#1411,#339);
#243=LINE('',#1415,#340);
#244=LINE('',#1417,#341);
#245=LINE('',#1419,#342);
#246=LINE('',#1423,#343);
#247=LINE('',#1425,#344);
#248=LINE('',#1426,#345);
#249=LINE('',#1429,#346);
#250=LINE('',#1433,#347);
#251=LINE('',#1435,#348);
#252=LINE('',#1437,#349);
#253=LINE('',#1438,#350);
#254=LINE('',#1441,#351);
#255=LINE('',#1444,#352);
#256=LINE('',#1447,#353);
#257=LINE('',#1449,#354);
#258=LINE('',#1450,#355);
#259=LINE('',#1452,#356);
#260=LINE('',#1454,#357);
#261=LINE('',#1457,#358);
#262=LINE('',#1458,#359);
#263=LINE('',#1460,#360);
#264=LINE('',#1466,#361);
#265=LINE('',#1468,#362);
#266=LINE('',#1470,#363);
#267=LINE('',#1472,#364);
#268=LINE('',#1473,#365);
#269=LINE('',#1475,#366);
#270=LINE('',#1477,#367);
#271=LINE('',#1479,#368);
#272=LINE('',#1482,#369);
#273=LINE('',#1487,#370);
#274=LINE('',#1490,#371);
#275=LINE('',#1492,#372);
#276=LINE('',#1501,#373);
#277=VECTOR('',#1005,10.);
#278=VECTOR('',#1006,10.);
#279=VECTOR('',#1007,10.);
#280=VECTOR('',#1008,10.);
#281=VECTOR('',#1011,10.);
#282=VECTOR('',#1012,10.);
#283=VECTOR('',#1013,10.);
#284=VECTOR('',#1016,10.);
#285=VECTOR('',#1017,10.);
#286=VECTOR('',#1018,10.);
#287=VECTOR('',#1019,10.);
#288=VECTOR('',#1020,10.);
#289=VECTOR('',#1021,10.);
#290=VECTOR('',#1022,10.);
#291=VECTOR('',#1023,10.);
#292=VECTOR('',#1032,10.);
#293=VECTOR('',#1033,10.);
#294=VECTOR('',#1034,10.);
#295=VECTOR('',#1037,10.);
#296=VECTOR('',#1038,10.);
#297=VECTOR('',#1041,10.);
#298=VECTOR('',#1042,10.);
#299=VECTOR('',#1043,10.);
#300=VECTOR('',#1044,10.);
#301=VECTOR('',#1047,10.);
#302=VECTOR('',#1048,10.);
#303=VECTOR('',#1049,10.);
#304=VECTOR('',#1050,1.16);
#305=VECTOR('',#1051,10.);
#306=VECTOR('',#1052,1.16);
#307=VECTOR('',#1055,10.);
#308=VECTOR('',#1056,10.);
#309=VECTOR('',#1059,10.);
#310=VECTOR('',#1060,10.);
#311=VECTOR('',#1061,10.);
#312=VECTOR('',#1062,10.);
#313=VECTOR('',#1065,1.16);
#314=VECTOR('',#1066,10.);
#315=VECTOR('',#1067,1.16);
#316=VECTOR('',#1068,10.);
#317=VECTOR('',#1069,10.);
#318=VECTOR('',#1070,10.);
#319=VECTOR('',#1073,1.16);
#320=VECTOR('',#1074,10.);
#321=VECTOR('',#1077,10.);
#322=VECTOR('',#1080,10.);
#323=VECTOR('',#1081,10.);
#324=VECTOR('',#1082,10.);
#325=VECTOR('',#1083,10.);
#326=VECTOR('',#1084,10.);
#327=VECTOR('',#1093,10.);
#328=VECTOR('',#1096,1.65);
#329=VECTOR('',#1101,2.);
#330=VECTOR('',#1106,1.65);
#331=VECTOR('',#1109,1.65);
#332=VECTOR('',#1114,1.99999999999999);
#333=VECTOR('',#1119,10.);
#334=VECTOR('',#1120,10.);
#335=VECTOR('',#1125,10.);
#336=VECTOR('',#1126,10.);
#337=VECTOR('',#1127,10.);
#338=VECTOR('',#1130,10.);
#339=VECTOR('',#1133,10.);
#340=VECTOR('',#1136,10.);
#341=VECTOR('',#1137,10.);
#342=VECTOR('',#1138,10.);
#343=VECTOR('',#1143,10.);
#344=VECTOR('',#1144,10.);
#345=VECTOR('',#1145,10.);
#346=VECTOR('',#1148,10.);
#347=VECTOR('',#1153,10.);
#348=VECTOR('',#1154,10.);
#349=VECTOR('',#1155,1.16);
#350=VECTOR('',#1156,10.);
#351=VECTOR('',#1159,10.);
#352=VECTOR('',#1164,10.);
#353=VECTOR('',#1167,10.);
#354=VECTOR('',#1168,1.16);
#355=VECTOR('',#1169,10.);
#356=VECTOR('',#1172,10.);
#357=VECTOR('',#1175,10.);
#358=VECTOR('',#1178,10.);
#359=VECTOR('',#1179,10.);
#360=VECTOR('',#1182,10.);
#361=VECTOR('',#1191,10.);
#362=VECTOR('',#1194,10.);
#363=VECTOR('',#1195,1.16);
#364=VECTOR('',#1196,10.);
#365=VECTOR('',#1197,1.16);
#366=VECTOR('',#1200,10.);
#367=VECTOR('',#1203,10.);
#368=VECTOR('',#1206,10.);
#369=VECTOR('',#1211,10.);
#370=VECTOR('',#1220,10.);
#371=VECTOR('',#1225,10.);
#372=VECTOR('',#1228,10.);
#373=VECTOR('',#1245,10.);
#374=VERTEX_POINT('',#1259);
#375=VERTEX_POINT('',#1260);
#376=VERTEX_POINT('',#1262);
#377=VERTEX_POINT('',#1264);
#378=VERTEX_POINT('',#1268);
#379=VERTEX_POINT('',#1270);
#380=VERTEX_POINT('',#1274);
#381=VERTEX_POINT('',#1276);
#382=VERTEX_POINT('',#1278);
#383=VERTEX_POINT('',#1280);
#384=VERTEX_POINT('',#1282);
#385=VERTEX_POINT('',#1284);
#386=VERTEX_POINT('',#1286);
#387=VERTEX_POINT('',#1289);
#388=VERTEX_POINT('',#1291);
#389=VERTEX_POINT('',#1293);
#390=VERTEX_POINT('',#1296);
#391=VERTEX_POINT('',#1298);
#392=VERTEX_POINT('',#1302);
#393=VERTEX_POINT('',#1306);
#394=VERTEX_POINT('',#1307);
#395=VERTEX_POINT('',#1309);
#396=VERTEX_POINT('',#1311);
#397=VERTEX_POINT('',#1315);
#398=VERTEX_POINT('',#1317);
#399=VERTEX_POINT('',#1319);
#400=VERTEX_POINT('',#1321);
#401=VERTEX_POINT('',#1323);
#402=VERTEX_POINT('',#1327);
#403=VERTEX_POINT('',#1331);
#404=VERTEX_POINT('',#1332);
#405=VERTEX_POINT('',#1334);
#406=VERTEX_POINT('',#1336);
#407=VERTEX_POINT('',#1340);
#408=VERTEX_POINT('',#1342);
#409=VERTEX_POINT('',#1344);
#410=VERTEX_POINT('',#1346);
#411=VERTEX_POINT('',#1348);
#412=VERTEX_POINT('',#1352);
#413=VERTEX_POINT('',#1358);
#414=VERTEX_POINT('',#1360);
#415=VERTEX_POINT('',#1362);
#416=VERTEX_POINT('',#1364);
#417=VERTEX_POINT('',#1367);
#418=VERTEX_POINT('',#1369);
#419=VERTEX_POINT('',#1371);
#420=VERTEX_POINT('',#1378);
#421=VERTEX_POINT('',#1380);
#422=VERTEX_POINT('',#1388);
#423=VERTEX_POINT('',#1390);
#424=VERTEX_POINT('',#1394);
#425=VERTEX_POINT('',#1398);
#426=VERTEX_POINT('',#1400);
#427=VERTEX_POINT('',#1402);
#428=VERTEX_POINT('',#1404);
#429=VERTEX_POINT('',#1406);
#430=VERTEX_POINT('',#1410);
#431=VERTEX_POINT('',#1412);
#432=VERTEX_POINT('',#1414);
#433=VERTEX_POINT('',#1416);
#434=VERTEX_POINT('',#1418);
#435=VERTEX_POINT('',#1422);
#436=VERTEX_POINT('',#1424);
#437=VERTEX_POINT('',#1428);
#438=VERTEX_POINT('',#1432);
#439=VERTEX_POINT('',#1434);
#440=VERTEX_POINT('',#1436);
#441=VERTEX_POINT('',#1440);
#442=VERTEX_POINT('',#1446);
#443=VERTEX_POINT('',#1448);
#444=VERTEX_POINT('',#1456);
#445=VERTEX_POINT('',#1464);
#446=VERTEX_POINT('',#1469);
#447=VERTEX_POINT('',#1471);
#448=EDGE_CURVE('',#374,#375,#180,.T.);
#449=EDGE_CURVE('',#375,#376,#181,.T.);
#450=EDGE_CURVE('',#376,#377,#182,.T.);
#451=EDGE_CURVE('',#377,#374,#183,.T.);
#452=EDGE_CURVE('',#378,#377,#184,.T.);
#453=EDGE_CURVE('',#379,#378,#185,.T.);
#454=EDGE_CURVE('',#374,#379,#186,.T.);
#455=EDGE_CURVE('',#376,#380,#187,.T.);
#456=EDGE_CURVE('',#380,#381,#188,.T.);
#457=EDGE_CURVE('',#381,#382,#189,.T.);
#458=EDGE_CURVE('',#382,#383,#190,.T.);
#459=EDGE_CURVE('',#383,#384,#191,.T.);
#460=EDGE_CURVE('',#385,#384,#192,.T.);
#461=EDGE_CURVE('',#385,#386,#193,.T.);
#462=EDGE_CURVE('',#386,#378,#194,.T.);
#463=EDGE_CURVE('',#387,#387,#42,.T.);
#464=EDGE_CURVE('',#388,#388,#43,.T.);
#465=EDGE_CURVE('',#389,#389,#44,.T.);
#466=EDGE_CURVE('',#384,#390,#195,.T.);
#467=EDGE_CURVE('',#390,#391,#196,.T.);
#468=EDGE_CURVE('',#391,#385,#197,.T.);
#469=EDGE_CURVE('',#392,#391,#198,.T.);
#470=EDGE_CURVE('',#392,#386,#199,.T.);
#471=EDGE_CURVE('',#393,#394,#200,.T.);
#472=EDGE_CURVE('',#394,#395,#201,.T.);
#473=EDGE_CURVE('',#395,#396,#202,.T.);
#474=EDGE_CURVE('',#396,#393,#203,.T.);
#475=EDGE_CURVE('',#393,#397,#204,.T.);
#476=EDGE_CURVE('',#397,#398,#205,.T.);
#477=EDGE_CURVE('',#398,#399,#206,.T.);
#478=EDGE_CURVE('',#399,#400,#207,.T.);
#479=EDGE_CURVE('',#400,#401,#208,.T.);
#480=EDGE_CURVE('',#394,#401,#209,.T.);
#481=EDGE_CURVE('',#402,#396,#210,.T.);
#482=EDGE_CURVE('',#397,#402,#211,.T.);
#483=EDGE_CURVE('',#403,#404,#212,.T.);
#484=EDGE_CURVE('',#404,#405,#213,.T.);
#485=EDGE_CURVE('',#405,#406,#214,.T.);
#486=EDGE_CURVE('',#406,#403,#215,.T.);
#487=EDGE_CURVE('',#405,#407,#216,.T.);
#488=EDGE_CURVE('',#407,#408,#217,.T.);
#489=EDGE_CURVE('',#409,#408,#218,.T.);
#490=EDGE_CURVE('',#409,#410,#219,.T.);
#491=EDGE_CURVE('',#410,#411,#220,.T.);
#492=EDGE_CURVE('',#411,#406,#221,.T.);
#493=EDGE_CURVE('',#412,#404,#222,.T.);
#494=EDGE_CURVE('',#412,#407,#223,.T.);
#495=EDGE_CURVE('',#379,#392,#224,.T.);
#496=EDGE_CURVE('',#390,#413,#225,.T.);
#497=EDGE_CURVE('',#413,#414,#226,.T.);
#498=EDGE_CURVE('',#414,#415,#227,.T.);
#499=EDGE_CURVE('',#415,#416,#228,.T.);
#500=EDGE_CURVE('',#416,#375,#229,.T.);
#501=EDGE_CURVE('',#417,#417,#45,.T.);
#502=EDGE_CURVE('',#418,#418,#46,.T.);
#503=EDGE_CURVE('',#419,#419,#47,.T.);
#504=EDGE_CURVE('',#383,#413,#230,.T.);
#505=EDGE_CURVE('',#419,#387,#231,.T.);
#506=EDGE_CURVE('',#420,#420,#48,.T.);
#507=EDGE_CURVE('',#420,#421,#232,.T.);
#508=EDGE_CURVE('',#421,#421,#49,.T.);
#509=EDGE_CURVE('',#418,#388,#233,.T.);
#510=EDGE_CURVE('',#417,#389,#234,.T.);
#511=EDGE_CURVE('',#422,#422,#50,.T.);
#512=EDGE_CURVE('',#422,#423,#235,.T.);
#513=EDGE_CURVE('',#423,#423,#51,.T.);
#514=EDGE_CURVE('',#424,#411,#236,.T.);
#515=EDGE_CURVE('',#403,#424,#237,.T.);
#516=EDGE_CURVE('',#425,#410,#52,.T.);
#517=EDGE_CURVE('',#426,#425,#238,.T.);
#518=EDGE_CURVE('',#427,#426,#239,.T.);
#519=EDGE_CURVE('',#428,#427,#240,.T.);
#520=EDGE_CURVE('',#429,#428,#53,.T.);
#521=EDGE_CURVE('',#424,#429,#241,.T.);
#522=EDGE_CURVE('',#430,#402,#242,.T.);
#523=EDGE_CURVE('',#431,#430,#54,.T.);
#524=EDGE_CURVE('',#432,#431,#243,.T.);
#525=EDGE_CURVE('',#433,#432,#244,.T.);
#526=EDGE_CURVE('',#434,#433,#245,.T.);
#527=EDGE_CURVE('',#398,#434,#55,.T.);
#528=EDGE_CURVE('',#429,#435,#246,.T.);
#529=EDGE_CURVE('',#435,#436,#247,.T.);
#530=EDGE_CURVE('',#436,#412,#248,.T.);
#531=EDGE_CURVE('',#437,#428,#249,.T.);
#532=EDGE_CURVE('',#437,#435,#56,.T.);
#533=EDGE_CURVE('',#395,#438,#250,.T.);
#534=EDGE_CURVE('',#438,#439,#251,.T.);
#535=EDGE_CURVE('',#439,#440,#252,.T.);
#536=EDGE_CURVE('',#440,#430,#253,.T.);
#537=EDGE_CURVE('',#441,#434,#254,.T.);
#538=EDGE_CURVE('',#441,#399,#57,.T.);
#539=EDGE_CURVE('',#401,#438,#255,.T.);
#540=EDGE_CURVE('',#431,#442,#256,.T.);
#541=EDGE_CURVE('',#443,#442,#257,.T.);
#542=EDGE_CURVE('',#443,#432,#258,.T.);
#543=EDGE_CURVE('',#442,#441,#259,.T.);
#544=EDGE_CURVE('',#442,#440,#58,.T.);
#545=EDGE_CURVE('',#399,#440,#260,.T.);
#546=EDGE_CURVE('',#444,#441,#261,.T.);
#547=EDGE_CURVE('',#443,#444,#262,.T.);
#548=EDGE_CURVE('',#433,#444,#263,.T.);
#549=EDGE_CURVE('',#409,#445,#59,.T.);
#550=EDGE_CURVE('',#425,#445,#264,.T.);
#551=EDGE_CURVE('',#445,#437,#265,.T.);
#552=EDGE_CURVE('',#446,#437,#266,.T.);
#553=EDGE_CURVE('',#446,#447,#267,.T.);
#554=EDGE_CURVE('',#445,#447,#268,.T.);
#555=EDGE_CURVE('',#427,#446,#269,.T.);
#556=EDGE_CURVE('',#435,#409,#270,.T.);
#557=EDGE_CURVE('',#447,#426,#271,.T.);
#558=EDGE_CURVE('',#408,#436,#272,.T.);
#559=EDGE_CURVE('',#438,#381,#60,.T.);
#560=EDGE_CURVE('',#380,#439,#61,.T.);
#561=EDGE_CURVE('',#439,#400,#273,.T.);
#562=EDGE_CURVE('',#401,#415,#62,.T.);
#563=EDGE_CURVE('',#381,#415,#274,.T.);
#564=EDGE_CURVE('',#416,#380,#275,.T.);
#565=EDGE_CURVE('',#400,#416,#63,.T.);
#566=EDGE_CURVE('',#436,#383,#64,.T.);
#567=EDGE_CURVE('',#382,#412,#65,.T.);
#568=EDGE_CURVE('',#408,#413,#66,.T.);
#569=EDGE_CURVE('',#414,#382,#276,.T.);
#570=EDGE_CURVE('',#407,#414,#67,.T.);
#571=ORIENTED_EDGE('',*,*,#448,.T.);
#572=ORIENTED_EDGE('',*,*,#449,.T.);
#573=ORIENTED_EDGE('',*,*,#450,.T.);
#574=ORIENTED_EDGE('',*,*,#451,.T.);
#575=ORIENTED_EDGE('',*,*,#451,.F.);
#576=ORIENTED_EDGE('',*,*,#452,.F.);
#577=ORIENTED_EDGE('',*,*,#453,.F.);
#578=ORIENTED_EDGE('',*,*,#454,.F.);
#579=ORIENTED_EDGE('',*,*,#450,.F.);
#580=ORIENTED_EDGE('',*,*,#455,.T.);
#581=ORIENTED_EDGE('',*,*,#456,.T.);
#582=ORIENTED_EDGE('',*,*,#457,.T.);
#583=ORIENTED_EDGE('',*,*,#458,.T.);
#584=ORIENTED_EDGE('',*,*,#459,.T.);
#585=ORIENTED_EDGE('',*,*,#460,.F.);
#586=ORIENTED_EDGE('',*,*,#461,.T.);
#587=ORIENTED_EDGE('',*,*,#462,.T.);
#588=ORIENTED_EDGE('',*,*,#452,.T.);
#589=ORIENTED_EDGE('',*,*,#463,.T.);
#590=ORIENTED_EDGE('',*,*,#464,.T.);
#591=ORIENTED_EDGE('',*,*,#465,.T.);
#592=ORIENTED_EDGE('',*,*,#460,.T.);
#593=ORIENTED_EDGE('',*,*,#466,.T.);
#594=ORIENTED_EDGE('',*,*,#467,.T.);
#595=ORIENTED_EDGE('',*,*,#468,.T.);
#596=ORIENTED_EDGE('',*,*,#468,.F.);
#597=ORIENTED_EDGE('',*,*,#469,.F.);
#598=ORIENTED_EDGE('',*,*,#470,.T.);
#599=ORIENTED_EDGE('',*,*,#461,.F.);
#600=ORIENTED_EDGE('',*,*,#471,.T.);
#601=ORIENTED_EDGE('',*,*,#472,.T.);
#602=ORIENTED_EDGE('',*,*,#473,.T.);
#603=ORIENTED_EDGE('',*,*,#474,.T.);
#604=ORIENTED_EDGE('',*,*,#471,.F.);
#605=ORIENTED_EDGE('',*,*,#475,.T.);
#606=ORIENTED_EDGE('',*,*,#476,.T.);
#607=ORIENTED_EDGE('',*,*,#477,.T.);
#608=ORIENTED_EDGE('',*,*,#478,.T.);
#609=ORIENTED_EDGE('',*,*,#479,.T.);
#610=ORIENTED_EDGE('',*,*,#480,.F.);
#611=ORIENTED_EDGE('',*,*,#474,.F.);
#612=ORIENTED_EDGE('',*,*,#481,.F.);
#613=ORIENTED_EDGE('',*,*,#482,.F.);
#614=ORIENTED_EDGE('',*,*,#475,.F.);
#615=ORIENTED_EDGE('',*,*,#483,.T.);
#616=ORIENTED_EDGE('',*,*,#484,.T.);
#617=ORIENTED_EDGE('',*,*,#485,.T.);
#618=ORIENTED_EDGE('',*,*,#486,.T.);
#619=ORIENTED_EDGE('',*,*,#485,.F.);
#620=ORIENTED_EDGE('',*,*,#487,.T.);
#621=ORIENTED_EDGE('',*,*,#488,.T.);
#622=ORIENTED_EDGE('',*,*,#489,.F.);
#623=ORIENTED_EDGE('',*,*,#490,.T.);
#624=ORIENTED_EDGE('',*,*,#491,.T.);
#625=ORIENTED_EDGE('',*,*,#492,.T.);
#626=ORIENTED_EDGE('',*,*,#484,.F.);
#627=ORIENTED_EDGE('',*,*,#493,.F.);
#628=ORIENTED_EDGE('',*,*,#494,.T.);
#629=ORIENTED_EDGE('',*,*,#487,.F.);
#630=ORIENTED_EDGE('',*,*,#462,.F.);
#631=ORIENTED_EDGE('',*,*,#470,.F.);
#632=ORIENTED_EDGE('',*,*,#495,.F.);
#633=ORIENTED_EDGE('',*,*,#453,.T.);
#634=ORIENTED_EDGE('',*,*,#448,.F.);
#635=ORIENTED_EDGE('',*,*,#454,.T.);
#636=ORIENTED_EDGE('',*,*,#495,.T.);
#637=ORIENTED_EDGE('',*,*,#469,.T.);
#638=ORIENTED_EDGE('',*,*,#467,.F.);
#639=ORIENTED_EDGE('',*,*,#496,.T.);
#640=ORIENTED_EDGE('',*,*,#497,.T.);
#641=ORIENTED_EDGE('',*,*,#498,.T.);
#642=ORIENTED_EDGE('',*,*,#499,.T.);
#643=ORIENTED_EDGE('',*,*,#500,.T.);
#644=ORIENTED_EDGE('',*,*,#501,.T.);
#645=ORIENTED_EDGE('',*,*,#502,.T.);
#646=ORIENTED_EDGE('',*,*,#503,.T.);
#647=ORIENTED_EDGE('',*,*,#466,.F.);
#648=ORIENTED_EDGE('',*,*,#459,.F.);
#649=ORIENTED_EDGE('',*,*,#504,.T.);
#650=ORIENTED_EDGE('',*,*,#496,.F.);
#651=ORIENTED_EDGE('',*,*,#503,.F.);
#652=ORIENTED_EDGE('',*,*,#505,.T.);
#653=ORIENTED_EDGE('',*,*,#463,.F.);
#654=ORIENTED_EDGE('',*,*,#505,.F.);
#655=ORIENTED_EDGE('',*,*,#506,.F.);
#656=ORIENTED_EDGE('',*,*,#507,.T.);
#657=ORIENTED_EDGE('',*,*,#508,.F.);
#658=ORIENTED_EDGE('',*,*,#507,.F.);
#659=ORIENTED_EDGE('',*,*,#502,.F.);
#660=ORIENTED_EDGE('',*,*,#509,.T.);
#661=ORIENTED_EDGE('',*,*,#464,.F.);
#662=ORIENTED_EDGE('',*,*,#509,.F.);
#663=ORIENTED_EDGE('',*,*,#501,.F.);
#664=ORIENTED_EDGE('',*,*,#510,.T.);
#665=ORIENTED_EDGE('',*,*,#465,.F.);
#666=ORIENTED_EDGE('',*,*,#510,.F.);
#667=ORIENTED_EDGE('',*,*,#511,.F.);
#668=ORIENTED_EDGE('',*,*,#512,.T.);
#669=ORIENTED_EDGE('',*,*,#513,.F.);
#670=ORIENTED_EDGE('',*,*,#512,.F.);
#671=ORIENTED_EDGE('',*,*,#486,.F.);
#672=ORIENTED_EDGE('',*,*,#492,.F.);
#673=ORIENTED_EDGE('',*,*,#514,.F.);
#674=ORIENTED_EDGE('',*,*,#515,.F.);
#675=ORIENTED_EDGE('',*,*,#491,.F.);
#676=ORIENTED_EDGE('',*,*,#516,.F.);
#677=ORIENTED_EDGE('',*,*,#517,.F.);
#678=ORIENTED_EDGE('',*,*,#518,.F.);
#679=ORIENTED_EDGE('',*,*,#519,.F.);
#680=ORIENTED_EDGE('',*,*,#520,.F.);
#681=ORIENTED_EDGE('',*,*,#521,.F.);
#682=ORIENTED_EDGE('',*,*,#514,.T.);
#683=ORIENTED_EDGE('',*,*,#522,.F.);
#684=ORIENTED_EDGE('',*,*,#523,.F.);
#685=ORIENTED_EDGE('',*,*,#524,.F.);
#686=ORIENTED_EDGE('',*,*,#525,.F.);
#687=ORIENTED_EDGE('',*,*,#526,.F.);
#688=ORIENTED_EDGE('',*,*,#527,.F.);
#689=ORIENTED_EDGE('',*,*,#476,.F.);
#690=ORIENTED_EDGE('',*,*,#482,.T.);
#691=ORIENTED_EDGE('',*,*,#483,.F.);
#692=ORIENTED_EDGE('',*,*,#515,.T.);
#693=ORIENTED_EDGE('',*,*,#521,.T.);
#694=ORIENTED_EDGE('',*,*,#528,.T.);
#695=ORIENTED_EDGE('',*,*,#529,.T.);
#696=ORIENTED_EDGE('',*,*,#530,.T.);
#697=ORIENTED_EDGE('',*,*,#493,.T.);
#698=ORIENTED_EDGE('',*,*,#520,.T.);
#699=ORIENTED_EDGE('',*,*,#531,.F.);
#700=ORIENTED_EDGE('',*,*,#532,.T.);
#701=ORIENTED_EDGE('',*,*,#528,.F.);
#702=ORIENTED_EDGE('',*,*,#473,.F.);
#703=ORIENTED_EDGE('',*,*,#533,.T.);
#704=ORIENTED_EDGE('',*,*,#534,.T.);
#705=ORIENTED_EDGE('',*,*,#535,.T.);
#706=ORIENTED_EDGE('',*,*,#536,.T.);
#707=ORIENTED_EDGE('',*,*,#522,.T.);
#708=ORIENTED_EDGE('',*,*,#481,.T.);
#709=ORIENTED_EDGE('',*,*,#527,.T.);
#710=ORIENTED_EDGE('',*,*,#537,.F.);
#711=ORIENTED_EDGE('',*,*,#538,.T.);
#712=ORIENTED_EDGE('',*,*,#477,.F.);
#713=ORIENTED_EDGE('',*,*,#472,.F.);
#714=ORIENTED_EDGE('',*,*,#480,.T.);
#715=ORIENTED_EDGE('',*,*,#539,.T.);
#716=ORIENTED_EDGE('',*,*,#533,.F.);
#717=ORIENTED_EDGE('',*,*,#524,.T.);
#718=ORIENTED_EDGE('',*,*,#540,.T.);
#719=ORIENTED_EDGE('',*,*,#541,.F.);
#720=ORIENTED_EDGE('',*,*,#542,.T.);
#721=ORIENTED_EDGE('',*,*,#513,.T.);
#722=ORIENTED_EDGE('',*,*,#543,.F.);
#723=ORIENTED_EDGE('',*,*,#544,.T.);
#724=ORIENTED_EDGE('',*,*,#545,.F.);
#725=ORIENTED_EDGE('',*,*,#538,.F.);
#726=ORIENTED_EDGE('',*,*,#543,.T.);
#727=ORIENTED_EDGE('',*,*,#546,.F.);
#728=ORIENTED_EDGE('',*,*,#547,.F.);
#729=ORIENTED_EDGE('',*,*,#541,.T.);
#730=ORIENTED_EDGE('',*,*,#525,.T.);
#731=ORIENTED_EDGE('',*,*,#542,.F.);
#732=ORIENTED_EDGE('',*,*,#547,.T.);
#733=ORIENTED_EDGE('',*,*,#548,.F.);
#734=ORIENTED_EDGE('',*,*,#523,.T.);
#735=ORIENTED_EDGE('',*,*,#536,.F.);
#736=ORIENTED_EDGE('',*,*,#544,.F.);
#737=ORIENTED_EDGE('',*,*,#540,.F.);
#738=ORIENTED_EDGE('',*,*,#526,.T.);
#739=ORIENTED_EDGE('',*,*,#548,.T.);
#740=ORIENTED_EDGE('',*,*,#546,.T.);
#741=ORIENTED_EDGE('',*,*,#537,.T.);
#742=ORIENTED_EDGE('',*,*,#511,.T.);
#743=ORIENTED_EDGE('',*,*,#516,.T.);
#744=ORIENTED_EDGE('',*,*,#490,.F.);
#745=ORIENTED_EDGE('',*,*,#549,.T.);
#746=ORIENTED_EDGE('',*,*,#550,.F.);
#747=ORIENTED_EDGE('',*,*,#551,.T.);
#748=ORIENTED_EDGE('',*,*,#552,.F.);
#749=ORIENTED_EDGE('',*,*,#553,.T.);
#750=ORIENTED_EDGE('',*,*,#554,.F.);
#751=ORIENTED_EDGE('',*,*,#519,.T.);
#752=ORIENTED_EDGE('',*,*,#555,.T.);
#753=ORIENTED_EDGE('',*,*,#552,.T.);
#754=ORIENTED_EDGE('',*,*,#531,.T.);
#755=ORIENTED_EDGE('',*,*,#508,.T.);
#756=ORIENTED_EDGE('',*,*,#551,.F.);
#757=ORIENTED_EDGE('',*,*,#549,.F.);
#758=ORIENTED_EDGE('',*,*,#556,.F.);
#759=ORIENTED_EDGE('',*,*,#532,.F.);
#760=ORIENTED_EDGE('',*,*,#518,.T.);
#761=ORIENTED_EDGE('',*,*,#557,.F.);
#762=ORIENTED_EDGE('',*,*,#553,.F.);
#763=ORIENTED_EDGE('',*,*,#555,.F.);
#764=ORIENTED_EDGE('',*,*,#517,.T.);
#765=ORIENTED_EDGE('',*,*,#550,.T.);
#766=ORIENTED_EDGE('',*,*,#554,.T.);
#767=ORIENTED_EDGE('',*,*,#557,.T.);
#768=ORIENTED_EDGE('',*,*,#506,.T.);
#769=ORIENTED_EDGE('',*,*,#556,.T.);
#770=ORIENTED_EDGE('',*,*,#489,.T.);
#771=ORIENTED_EDGE('',*,*,#558,.T.);
#772=ORIENTED_EDGE('',*,*,#529,.F.);
#773=ORIENTED_EDGE('',*,*,#534,.F.);
#774=ORIENTED_EDGE('',*,*,#559,.T.);
#775=ORIENTED_EDGE('',*,*,#456,.F.);
#776=ORIENTED_EDGE('',*,*,#560,.T.);
#777=ORIENTED_EDGE('',*,*,#545,.T.);
#778=ORIENTED_EDGE('',*,*,#535,.F.);
#779=ORIENTED_EDGE('',*,*,#561,.T.);
#780=ORIENTED_EDGE('',*,*,#478,.F.);
#781=ORIENTED_EDGE('',*,*,#539,.F.);
#782=ORIENTED_EDGE('',*,*,#562,.T.);
#783=ORIENTED_EDGE('',*,*,#563,.F.);
#784=ORIENTED_EDGE('',*,*,#559,.F.);
#785=ORIENTED_EDGE('',*,*,#561,.F.);
#786=ORIENTED_EDGE('',*,*,#560,.F.);
#787=ORIENTED_EDGE('',*,*,#564,.F.);
#788=ORIENTED_EDGE('',*,*,#565,.F.);
#789=ORIENTED_EDGE('',*,*,#479,.F.);
#790=ORIENTED_EDGE('',*,*,#565,.T.);
#791=ORIENTED_EDGE('',*,*,#499,.F.);
#792=ORIENTED_EDGE('',*,*,#562,.F.);
#793=ORIENTED_EDGE('',*,*,#530,.F.);
#794=ORIENTED_EDGE('',*,*,#566,.T.);
#795=ORIENTED_EDGE('',*,*,#458,.F.);
#796=ORIENTED_EDGE('',*,*,#567,.T.);
#797=ORIENTED_EDGE('',*,*,#558,.F.);
#798=ORIENTED_EDGE('',*,*,#568,.T.);
#799=ORIENTED_EDGE('',*,*,#504,.F.);
#800=ORIENTED_EDGE('',*,*,#566,.F.);
#801=ORIENTED_EDGE('',*,*,#494,.F.);
#802=ORIENTED_EDGE('',*,*,#567,.F.);
#803=ORIENTED_EDGE('',*,*,#569,.F.);
#804=ORIENTED_EDGE('',*,*,#570,.F.);
#805=ORIENTED_EDGE('',*,*,#488,.F.);
#806=ORIENTED_EDGE('',*,*,#570,.T.);
#807=ORIENTED_EDGE('',*,*,#497,.F.);
#808=ORIENTED_EDGE('',*,*,#568,.F.);
#809=ORIENTED_EDGE('',*,*,#449,.F.);
#810=ORIENTED_EDGE('',*,*,#500,.F.);
#811=ORIENTED_EDGE('',*,*,#564,.T.);
#812=ORIENTED_EDGE('',*,*,#455,.F.);
#813=ORIENTED_EDGE('',*,*,#563,.T.);
#814=ORIENTED_EDGE('',*,*,#498,.F.);
#815=ORIENTED_EDGE('',*,*,#569,.T.);
#816=ORIENTED_EDGE('',*,*,#457,.F.);
#817=PLANE('',#921);
#818=PLANE('',#922);
#819=PLANE('',#923);
#820=PLANE('',#927);
#821=PLANE('',#928);
#822=PLANE('',#929);
#823=PLANE('',#930);
#824=PLANE('',#931);
#825=PLANE('',#932);
#826=PLANE('',#933);
#827=PLANE('',#934);
#828=PLANE('',#935);
#829=PLANE('',#936);
#830=PLANE('',#940);
#831=PLANE('',#950);
#832=PLANE('',#951);
#833=PLANE('',#954);
#834=PLANE('',#957);
#835=PLANE('',#960);
#836=PLANE('',#963);
#837=PLANE('',#964);
#838=PLANE('',#965);
#839=PLANE('',#967);
#840=PLANE('',#968);
#841=PLANE('',#970);
#842=PLANE('',#973);
#843=PLANE('',#974);
#844=PLANE('',#975);
#845=PLANE('',#976);
#846=PLANE('',#977);
#847=PLANE('',#978);
#848=PLANE('',#982);
#849=PLANE('',#983);
#850=PLANE('',#985);
#851=PLANE('',#991);
#852=PLANE('',#993);
#853=PLANE('',#996);
#854=PLANE('',#997);
#855=ADVANCED_FACE('',(#68),#817,.T.);
#856=ADVANCED_FACE('',(#69),#818,.F.);
#857=ADVANCED_FACE('',(#70,#32,#33,#34),#819,.F.);
#858=ADVANCED_FACE('',(#71),#820,.T.);
#859=ADVANCED_FACE('',(#72),#821,.F.);
#860=ADVANCED_FACE('',(#73),#822,.T.);
#861=ADVANCED_FACE('',(#74),#823,.F.);
#862=ADVANCED_FACE('',(#75),#824,.F.);
#863=ADVANCED_FACE('',(#76),#825,.T.);
#864=ADVANCED_FACE('',(#77),#826,.F.);
#865=ADVANCED_FACE('',(#78),#827,.T.);
#866=ADVANCED_FACE('',(#79),#828,.F.);
#867=ADVANCED_FACE('',(#80,#35,#36,#37),#829,.T.);
#868=ADVANCED_FACE('',(#81),#830,.T.);
#869=ADVANCED_FACE('',(#82),#19,.F.);
#870=ADVANCED_FACE('',(#83),#20,.F.);
#871=ADVANCED_FACE('',(#84),#21,.F.);
#872=ADVANCED_FACE('',(#85),#22,.F.);
#873=ADVANCED_FACE('',(#86),#23,.F.);
#874=ADVANCED_FACE('',(#87),#831,.F.);
#875=ADVANCED_FACE('',(#88),#832,.F.);
#876=ADVANCED_FACE('',(#89),#833,.F.);
#877=ADVANCED_FACE('',(#90),#834,.T.);
#878=ADVANCED_FACE('',(#91),#24,.F.);
#879=ADVANCED_FACE('',(#92),#835,.T.);
#880=ADVANCED_FACE('',(#93),#25,.T.);
#881=ADVANCED_FACE('',(#94),#836,.T.);
#882=ADVANCED_FACE('',(#95,#38),#837,.F.);
#883=ADVANCED_FACE('',(#96),#838,.T.);
#884=ADVANCED_FACE('',(#97),#839,.T.);
#885=ADVANCED_FACE('',(#98),#840,.T.);
#886=ADVANCED_FACE('',(#99),#26,.F.);
#887=ADVANCED_FACE('',(#100,#39),#841,.T.);
#888=ADVANCED_FACE('',(#101),#27,.T.);
#889=ADVANCED_FACE('',(#102),#842,.T.);
#890=ADVANCED_FACE('',(#103,#40),#843,.T.);
#891=ADVANCED_FACE('',(#104),#844,.T.);
#892=ADVANCED_FACE('',(#105),#845,.T.);
#893=ADVANCED_FACE('',(#106,#41),#846,.T.);
#894=ADVANCED_FACE('',(#107),#847,.T.);
#895=ADVANCED_FACE('',(#108),#28,.T.);
#896=ADVANCED_FACE('',(#109),#848,.T.);
#897=ADVANCED_FACE('',(#110),#849,.T.);
#898=ADVANCED_FACE('',(#111),#850,.T.);
#899=ADVANCED_FACE('',(#112),#29,.F.);
#900=ADVANCED_FACE('',(#113),#30,.T.);
#901=ADVANCED_FACE('',(#114),#851,.T.);
#902=ADVANCED_FACE('',(#115),#852,.T.);
#903=ADVANCED_FACE('',(#116),#31,.F.);
#904=ADVANCED_FACE('',(#117),#853,.T.);
#905=ADVANCED_FACE('',(#118),#854,.T.);
#906=CLOSED_SHELL('',(#855,#856,#857,#858,#859,#860,#861,#862,#863,#864,
#865,#866,#867,#868,#869,#870,#871,#872,#873,#874,#875,#876,#877,#878,#879,
#880,#881,#882,#883,#884,#885,#886,#887,#888,#889,#890,#891,#892,#893,#894,
#895,#896,#897,#898,#899,#900,#901,#902,#903,#904,#905));
#907=DERIVED_UNIT_ELEMENT(#909,1.);
#908=DERIVED_UNIT_ELEMENT(#1514,-3.);
#909=(
MASS_UNIT()
NAMED_UNIT(*)
SI_UNIT(.KILO.,.GRAM.)
);
#910=DERIVED_UNIT((#907,#908));
#911=MEASURE_REPRESENTATION_ITEM('density measure',
POSITIVE_RATIO_MEASURE(7850.),#910);
#912=PROPERTY_DEFINITION_REPRESENTATION(#917,#914);
#913=PROPERTY_DEFINITION_REPRESENTATION(#918,#915);
#914=REPRESENTATION('material name',(#916),#1511);
#915=REPRESENTATION('density',(#911),#1511);
#916=DESCRIPTIVE_REPRESENTATION_ITEM('Steel','Steel');
#917=PROPERTY_DEFINITION('material property','material name',#1526);
#918=PROPERTY_DEFINITION('material property','density of part',#1526);
#919=AXIS2_PLACEMENT_3D('',#1256,#999,#1000);
#920=AXIS2_PLACEMENT_3D('',#1257,#1001,#1002);
#921=AXIS2_PLACEMENT_3D('',#1258,#1003,#1004);
#922=AXIS2_PLACEMENT_3D('',#1267,#1009,#1010);
#923=AXIS2_PLACEMENT_3D('',#1273,#1014,#1015);
#924=AXIS2_PLACEMENT_3D('',#1290,#1024,#1025);
#925=AXIS2_PLACEMENT_3D('',#1292,#1026,#1027);
#926=AXIS2_PLACEMENT_3D('',#1294,#1028,#1029);
#927=AXIS2_PLACEMENT_3D('',#1295,#1030,#1031);
#928=AXIS2_PLACEMENT_3D('',#1301,#1035,#1036);
#929=AXIS2_PLACEMENT_3D('',#1305,#1039,#1040);
#930=AXIS2_PLACEMENT_3D('',#1314,#1045,#1046);
#931=AXIS2_PLACEMENT_3D('',#1326,#1053,#1054);
#932=AXIS2_PLACEMENT_3D('',#1330,#1057,#1058);
#933=AXIS2_PLACEMENT_3D('',#1339,#1063,#1064);
#934=AXIS2_PLACEMENT_3D('',#1351,#1071,#1072);
#935=AXIS2_PLACEMENT_3D('',#1355,#1075,#1076);
#936=AXIS2_PLACEMENT_3D('',#1357,#1078,#1079);
#937=AXIS2_PLACEMENT_3D('',#1368,#1085,#1086);
#938=AXIS2_PLACEMENT_3D('',#1370,#1087,#1088);
#939=AXIS2_PLACEMENT_3D('',#1372,#1089,#1090);
#940=AXIS2_PLACEMENT_3D('',#1373,#1091,#1092);
#941=AXIS2_PLACEMENT_3D('',#1375,#1094,#1095);
#942=AXIS2_PLACEMENT_3D('',#1377,#1097,#1098);
#943=AXIS2_PLACEMENT_3D('',#1379,#1099,#1100);
#944=AXIS2_PLACEMENT_3D('',#1382,#1102,#1103);
#945=AXIS2_PLACEMENT_3D('',#1383,#1104,#1105);
#946=AXIS2_PLACEMENT_3D('',#1385,#1107,#1108);
#947=AXIS2_PLACEMENT_3D('',#1387,#1110,#1111);
#948=AXIS2_PLACEMENT_3D('',#1389,#1112,#1113);
#949=AXIS2_PLACEMENT_3D('',#1392,#1115,#1116);
#950=AXIS2_PLACEMENT_3D('',#1393,#1117,#1118);
#951=AXIS2_PLACEMENT_3D('',#1397,#1121,#1122);
#952=AXIS2_PLACEMENT_3D('',#1399,#1123,#1124);
#953=AXIS2_PLACEMENT_3D('',#1407,#1128,#1129);
#954=AXIS2_PLACEMENT_3D('',#1409,#1131,#1132);
#955=AXIS2_PLACEMENT_3D('',#1413,#1134,#1135);
#956=AXIS2_PLACEMENT_3D('',#1420,#1139,#1140);
#957=AXIS2_PLACEMENT_3D('',#1421,#1141,#1142);
#958=AXIS2_PLACEMENT_3D('',#1427,#1146,#1147);
#959=AXIS2_PLACEMENT_3D('',#1430,#1149,#1150);
#960=AXIS2_PLACEMENT_3D('',#1431,#1151,#1152);
#961=AXIS2_PLACEMENT_3D('',#1439,#1157,#1158);
#962=AXIS2_PLACEMENT_3D('',#1442,#1160,#1161);
#963=AXIS2_PLACEMENT_3D('',#1443,#1162,#1163);
#964=AXIS2_PLACEMENT_3D('',#1445,#1165,#1166);
#965=AXIS2_PLACEMENT_3D('',#1451,#1170,#1171);
#966=AXIS2_PLACEMENT_3D('',#1453,#1173,#1174);
#967=AXIS2_PLACEMENT_3D('',#1455,#1176,#1177);
#968=AXIS2_PLACEMENT_3D('',#1459,#1180,#1181);
#969=AXIS2_PLACEMENT_3D('',#1461,#1183,#1184);
#970=AXIS2_PLACEMENT_3D('',#1462,#1185,#1186);
#971=AXIS2_PLACEMENT_3D('',#1463,#1187,#1188);
#972=AXIS2_PLACEMENT_3D('',#1465,#1189,#1190);
#973=AXIS2_PLACEMENT_3D('',#1467,#1192,#1193);
#974=AXIS2_PLACEMENT_3D('',#1474,#1198,#1199);
#975=AXIS2_PLACEMENT_3D('',#1476,#1201,#1202);
#976=AXIS2_PLACEMENT_3D('',#1478,#1204,#1205);
#977=AXIS2_PLACEMENT_3D('',#1480,#1207,#1208);
#978=AXIS2_PLACEMENT_3D('',#1481,#1209,#1210);
#979=AXIS2_PLACEMENT_3D('',#1483,#1212,#1213);
#980=AXIS2_PLACEMENT_3D('',#1484,#1214,#1215);
#981=AXIS2_PLACEMENT_3D('',#1485,#1216,#1217);
#982=AXIS2_PLACEMENT_3D('',#1486,#1218,#1219);
#983=AXIS2_PLACEMENT_3D('',#1488,#1221,#1222);
#984=AXIS2_PLACEMENT_3D('',#1489,#1223,#1224);
#985=AXIS2_PLACEMENT_3D('',#1491,#1226,#1227);
#986=AXIS2_PLACEMENT_3D('',#1493,#1229,#1230);
#987=AXIS2_PLACEMENT_3D('',#1494,#1231,#1232);
#988=AXIS2_PLACEMENT_3D('',#1495,#1233,#1234);
#989=AXIS2_PLACEMENT_3D('',#1496,#1235,#1236);
#990=AXIS2_PLACEMENT_3D('',#1497,#1237,#1238);
#991=AXIS2_PLACEMENT_3D('',#1498,#1239,#1240);
#992=AXIS2_PLACEMENT_3D('',#1499,#1241,#1242);
#993=AXIS2_PLACEMENT_3D('',#1500,#1243,#1244);
#994=AXIS2_PLACEMENT_3D('',#1502,#1246,#1247);
#995=AXIS2_PLACEMENT_3D('',#1503,#1248,#1249);
#996=AXIS2_PLACEMENT_3D('',#1504,#1250,#1251);
#997=AXIS2_PLACEMENT_3D('',#1505,#1252,#1253);
#998=AXIS2_PLACEMENT_3D('',#1506,#1254,#1255);
#999=DIRECTION('axis',(0.,0.,1.));
#1000=DIRECTION('refdir',(1.,0.,0.));
#1001=DIRECTION('axis',(0.,0.,1.));
#1002=DIRECTION('refdir',(1.,0.,0.));
#1003=DIRECTION('center_axis',(-0.707106781186547,0.,-0.707106781186548));
#1004=DIRECTION('ref_axis',(-0.707106781186548,0.,0.707106781186547));
#1005=DIRECTION('',(0.707106781186548,0.,-0.707106781186547));
#1006=DIRECTION('',(0.,-1.,0.));
#1007=DIRECTION('',(-0.707106781186548,0.,0.707106781186547));
#1008=DIRECTION('',(0.,1.,0.));
#1009=DIRECTION('center_axis',(1.,0.,0.));
#1010=DIRECTION('ref_axis',(0.,0.,1.));
#1011=DIRECTION('',(0.,0.,-1.));
#1012=DIRECTION('',(0.,-1.,0.));
#1013=DIRECTION('',(0.,0.,1.));
#1014=DIRECTION('center_axis',(0.,1.,0.));
#1015=DIRECTION('ref_axis',(1.,0.,0.));
#1016=DIRECTION('',(1.,0.,0.));
#1017=DIRECTION('',(0.,0.,1.));
#1018=DIRECTION('',(-1.,0.,0.));
#1019=DIRECTION('',(0.,0.,-1.));
#1020=DIRECTION('',(1.,0.,0.));
#1021=DIRECTION('',(-0.707106781186548,0.,-0.707106781186547));
#1022=DIRECTION('',(0.,0.,1.));
#1023=DIRECTION('',(1.,0.,0.));
#1024=DIRECTION('center_axis',(0.,1.,0.));
#1025=DIRECTION('ref_axis',(-1.,0.,0.));
#1026=DIRECTION('center_axis',(0.,1.,0.));
#1027=DIRECTION('ref_axis',(-1.,0.,0.));
#1028=DIRECTION('center_axis',(0.,1.,0.));
#1029=DIRECTION('ref_axis',(-1.,0.,0.));
#1030=DIRECTION('center_axis',(0.707106781186547,0.,-0.707106781186548));
#1031=DIRECTION('ref_axis',(-0.707106781186548,0.,-0.707106781186547));
#1032=DIRECTION('',(0.,1.,0.));
#1033=DIRECTION('',(0.707106781186548,0.,0.707106781186547));
#1034=DIRECTION('',(0.,-1.,0.));
#1035=DIRECTION('center_axis',(-1.,0.,0.));
#1036=DIRECTION('ref_axis',(0.,0.,-1.));
#1037=DIRECTION('',(0.,0.,-1.));
#1038=DIRECTION('',(0.,-1.,0.));
#1039=DIRECTION('center_axis',(0.,0.707106781186548,0.707106781186547));
#1040=DIRECTION('ref_axis',(1.,0.,0.));
#1041=DIRECTION('',(-3.78987080224694E-15,-0.707106781186547,0.707106781186548));
#1042=DIRECTION('',(1.,0.,0.));
#1043=DIRECTION('',(3.81151970365283E-15,0.707106781186547,-0.707106781186548));
#1044=DIRECTION('',(-1.,0.,0.));
#1045=DIRECTION('center_axis',(1.,-5.35968668817944E-15,0.));
#1046=DIRECTION('ref_axis',(0.,0.,-1.));
#1047=DIRECTION('',(0.,0.,-1.));
#1048=DIRECTION('',(5.35968668817944E-15,1.,-2.3801790263975E-30));
#1049=DIRECTION('',(0.,0.,-1.));
#1050=DIRECTION('',(-5.32907051820075E-15,-1.,0.));
#1051=DIRECTION('',(0.,0.,1.));
#1052=DIRECTION('',(-5.32907051820075E-15,-1.,0.));
#1053=DIRECTION('center_axis',(0.,-1.,0.));
#1054=DIRECTION('ref_axis',(0.,0.,-1.));
#1055=DIRECTION('',(0.,0.,1.));
#1056=DIRECTION('',(1.,0.,-4.44089209850063E-16));
#1057=DIRECTION('center_axis',(0.,0.707106781186548,0.707106781186547));
#1058=DIRECTION('ref_axis',(1.,0.,0.));
#1059=DIRECTION('',(4.32978028117746E-17,-0.707106781186547,0.707106781186548));
#1060=DIRECTION('',(1.,0.,0.));
#1061=DIRECTION('',(-4.27977761187614E-17,0.707106781186547,-0.707106781186548));
#1062=DIRECTION('',(-1.,0.,0.));
#1063=DIRECTION('center_axis',(-1.,-6.05251954265598E-17,0.));
#1064=DIRECTION('ref_axis',(0.,0.,-1.));
#1065=DIRECTION('',(5.9818050895752E-17,-1.,0.));
#1066=DIRECTION('',(0.,0.,-1.));
#1067=DIRECTION('',(5.9818050895752E-17,-1.,0.));
#1068=DIRECTION('',(0.,0.,1.));
#1069=DIRECTION('',(6.05251954265598E-17,-1.,0.));
#1070=DIRECTION('',(0.,0.,1.));
#1071=DIRECTION('center_axis',(0.,0.,1.));
#1072=DIRECTION('ref_axis',(-5.9818050895752E-17,1.,0.));
#1073=DIRECTION('',(-5.9818050895752E-17,1.,0.));
#1074=DIRECTION('',(1.,6.12323399573677E-17,0.));
#1075=DIRECTION('center_axis',(0.,0.,1.));
#1076=DIRECTION('ref_axis',(-1.,0.,0.));
#1077=DIRECTION('',(-1.,0.,0.));
#1078=DIRECTION('center_axis',(0.,1.,0.));
#1079=DIRECTION('ref_axis',(0.,0.,1.));
#1080=DIRECTION('',(-1.,0.,0.));
#1081=DIRECTION('',(0.,0.,1.));
#1082=DIRECTION('',(1.,0.,0.));
#1083=DIRECTION('',(0.,0.,-1.));
#1084=DIRECTION('',(-1.,0.,0.));
#1085=DIRECTION('center_axis',(0.,-1.,0.));
#1086=DIRECTION('ref_axis',(-1.,0.,0.));
#1087=DIRECTION('center_axis',(0.,-1.,0.));
#1088=DIRECTION('ref_axis',(-1.,0.,0.));
#1089=DIRECTION('center_axis',(0.,-1.,0.));
#1090=DIRECTION('ref_axis',(-1.,0.,0.));
#1091=DIRECTION('center_axis',(0.,0.,-1.));
#1092=DIRECTION('ref_axis',(-1.,0.,0.));
#1093=DIRECTION('',(0.,1.,0.));
#1094=DIRECTION('center_axis',(0.,-1.,0.));
#1095=DIRECTION('ref_axis',(-1.,0.,0.));
#1096=DIRECTION('',(0.,-1.,0.));
#1097=DIRECTION('center_axis',(0.,-1.,0.));
#1098=DIRECTION('ref_axis',(-1.,0.,0.));
#1099=DIRECTION('center_axis',(-6.12323399573677E-17,-1.,0.));
#1100=DIRECTION('ref_axis',(-1.,0.,0.));
#1101=DIRECTION('',(0.,-1.,0.));
#1102=DIRECTION('center_axis',(-3.06161699786838E-17,1.,0.));
#1103=DIRECTION('ref_axis',(-1.,0.,0.));
#1104=DIRECTION('center_axis',(0.,-1.,0.));
#1105=DIRECTION('ref_axis',(-1.,0.,0.));
#1106=DIRECTION('',(0.,-1.,0.));
#1107=DIRECTION('center_axis',(0.,-1.,0.));
#1108=DIRECTION('ref_axis',(-1.,0.,0.));
#1109=DIRECTION('',(0.,-1.,0.));
#1110=DIRECTION('center_axis',(0.,-1.,0.));
#1111=DIRECTION('ref_axis',(-1.,0.,0.));
#1112=DIRECTION('center_axis',(-7.63631396411037E-15,-1.,0.));
#1113=DIRECTION('ref_axis',(-1.,0.,0.));
#1114=DIRECTION('',(0.,-1.,0.));
#1115=DIRECTION('center_axis',(5.62001484567775E-15,1.,0.));
#1116=DIRECTION('ref_axis',(-1.,0.,0.));
#1117=DIRECTION('center_axis',(0.,-1.,0.));
#1118=DIRECTION('ref_axis',(0.,0.,-1.));
#1119=DIRECTION('',(1.,0.,0.));
#1120=DIRECTION('',(0.,0.,-1.));
#1121=DIRECTION('center_axis',(0.,0.,-1.));
#1122=DIRECTION('ref_axis',(1.,0.,0.));
#1123=DIRECTION('center_axis',(0.,0.,-1.));
#1124=DIRECTION('ref_axis',(1.,6.12323399573677E-17,0.));
#1125=DIRECTION('',(1.,-6.12323399573677E-17,0.));
#1126=DIRECTION('',(6.12323399573677E-17,1.,0.));
#1127=DIRECTION('',(-1.,-3.06161699786838E-17,0.));
#1128=DIRECTION('center_axis',(0.,0.,1.));
#1129=DIRECTION('ref_axis',(1.,6.12323399573677E-17,0.));
#1130=DIRECTION('',(-6.12323399573677E-17,1.,0.));
#1131=DIRECTION('center_axis',(-4.44089209850063E-16,0.,-1.));
#1132=DIRECTION('ref_axis',(1.,0.,-4.44089209850063E-16));
#1133=DIRECTION('',(-5.39030285815812E-15,-1.,2.39377533713197E-30));
#1134=DIRECTION('center_axis',(4.44089209850063E-16,0.,1.));
#1135=DIRECTION('ref_axis',(-1.,5.39030285815812E-15,0.));
#1136=DIRECTION('',(-1.,5.62001484567775E-15,4.44089209850063E-16));
#1137=DIRECTION('',(-7.63631396411037E-15,-1.,3.39120463448877E-30));
#1138=DIRECTION('',(1.,-7.63631396411037E-15,-4.44089209850063E-16));
#1139=DIRECTION('center_axis',(-4.44089209850063E-16,0.,-1.));
#1140=DIRECTION('ref_axis',(-1.,5.39030285815812E-15,0.));
#1141=DIRECTION('center_axis',(-1.,-6.12323399573677E-17,0.));
#1142=DIRECTION('ref_axis',(0.,0.,-1.));
#1143=DIRECTION('',(0.,0.,-1.));
#1144=DIRECTION('',(6.12323399573677E-17,-1.,0.));
#1145=DIRECTION('',(0.,0.,1.));
#1146=DIRECTION('center_axis',(0.,0.,1.));
#1147=DIRECTION('ref_axis',(1.,6.12323399573677E-17,0.));
#1148=DIRECTION('',(0.,0.,1.));
#1149=DIRECTION('center_axis',(0.,0.,-1.));
#1150=DIRECTION('ref_axis',(0.,1.,0.));
#1151=DIRECTION('center_axis',(1.,-5.39030285815812E-15,0.));
#1152=DIRECTION('ref_axis',(0.,0.,-1.));
#1153=DIRECTION('',(-5.39030285815812E-15,-1.,0.));
#1154=DIRECTION('',(0.,0.,-1.));
#1155=DIRECTION('',(5.32907051820075E-15,1.,0.));
#1156=DIRECTION('',(0.,0.,1.));
#1157=DIRECTION('center_axis',(0.,0.,-1.));
#1158=DIRECTION('ref_axis',(-1.,5.39030285815812E-15,0.));
#1159=DIRECTION('',(0.,0.,1.));
#1160=DIRECTION('center_axis',(0.,0.,1.));
#1161=DIRECTION('ref_axis',(8.88178419700129E-15,1.,0.));
#1162=DIRECTION('center_axis',(0.,0.,1.));
#1163=DIRECTION('ref_axis',(-5.39030285815812E-15,-1.,0.));
#1164=DIRECTION('',(1.,-5.39030285815812E-15,0.));
#1165=DIRECTION('center_axis',(5.62001484567775E-15,1.,0.));
#1166=DIRECTION('ref_axis',(0.,0.,1.));
#1167=DIRECTION('',(0.,0.,-1.));
#1168=DIRECTION('',(-1.,4.13460233375449E-15,0.));
#1169=DIRECTION('',(0.,0.,1.));
#1170=DIRECTION('center_axis',(0.,0.,-1.));
#1171=DIRECTION('ref_axis',(-1.,0.,0.));
#1172=DIRECTION('',(7.105427357601E-15,1.,0.));
#1173=DIRECTION('center_axis',(0.,0.,1.));
#1174=DIRECTION('ref_axis',(0.,1.,0.));
#1175=DIRECTION('',(1.,-5.92118946466749E-15,0.));
#1176=DIRECTION('center_axis',(0.,0.,-1.));
#1177=DIRECTION('ref_axis',(-1.,7.105427357601E-15,0.));
#1178=DIRECTION('',(-1.,7.105427357601E-15,0.));
#1179=DIRECTION('',(7.63631396411037E-15,1.,0.));
#1180=DIRECTION('center_axis',(1.,-7.63631396411037E-15,0.));
#1181=DIRECTION('ref_axis',(0.,0.,-1.));
#1182=DIRECTION('',(0.,0.,-1.));
#1183=DIRECTION('center_axis',(0.,0.,-1.));
#1184=DIRECTION('ref_axis',(-1.,5.39030285815812E-15,0.));
#1185=DIRECTION('center_axis',(7.63631396411037E-15,1.,0.));
#1186=DIRECTION('ref_axis',(0.,0.,1.));
#1187=DIRECTION('center_axis',(0.,0.,1.));
#1188=DIRECTION('ref_axis',(1.,6.12323399573677E-17,0.));
#1189=DIRECTION('center_axis',(0.,0.,1.));
#1190=DIRECTION('ref_axis',(1.,2.22044604925031E-15,0.));
#1191=DIRECTION('',(0.,0.,-1.));
#1192=DIRECTION('center_axis',(0.,0.,-1.));
#1193=DIRECTION('ref_axis',(-1.,-6.12323399573677E-17,0.));
#1194=DIRECTION('',(0.,-1.,0.));
#1195=DIRECTION('',(1.,6.12323399573677E-17,0.));
#1196=DIRECTION('',(6.12323399573677E-17,1.,0.));
#1197=DIRECTION('',(-1.,-6.12323399573677E-17,0.));
#1198=DIRECTION('center_axis',(3.06161699786838E-17,-1.,0.));
#1199=DIRECTION('ref_axis',(0.,0.,1.));
#1200=DIRECTION('',(0.,0.,-1.));
#1201=DIRECTION('center_axis',(0.,0.,-1.));
#1202=DIRECTION('ref_axis',(-1.,0.,0.));
#1203=DIRECTION('',(1.,0.,0.));
#1204=DIRECTION('center_axis',(-1.,6.12323399573677E-17,0.));
#1205=DIRECTION('ref_axis',(0.,0.,1.));
#1206=DIRECTION('',(0.,0.,1.));
#1207=DIRECTION('center_axis',(6.12323399573677E-17,1.,0.));
#1208=DIRECTION('ref_axis',(0.,0.,-1.));
#1209=DIRECTION('center_axis',(0.,0.,-1.));
#1210=DIRECTION('ref_axis',(6.12323399573677E-17,-1.,0.));
#1211=DIRECTION('',(-1.,-6.12323399573677E-17,0.));
#1212=DIRECTION('center_axis',(0.,0.,1.));
#1213=DIRECTION('ref_axis',(0.,-1.,0.));
#1214=DIRECTION('center_axis',(0.,0.,-1.));
#1215=DIRECTION('ref_axis',(1.,-5.41233724504761E-15,0.));
#1216=DIRECTION('center_axis',(0.,0.,1.));
#1217=DIRECTION('ref_axis',(0.,-1.,0.));
#1218=DIRECTION('center_axis',(0.,0.,-1.));
#1219=DIRECTION('ref_axis',(5.32907051820075E-15,1.,0.));
#1220=DIRECTION('',(-1.,5.39030285815812E-15,0.));
#1221=DIRECTION('center_axis',(0.,0.,1.));
#1222=DIRECTION('ref_axis',(1.,0.,0.));
#1223=DIRECTION('center_axis',(0.,0.,-1.));
#1224=DIRECTION('ref_axis',(1.,-5.5511151231257E-15,0.));
#1225=DIRECTION('',(0.,1.,0.));
#1226=DIRECTION('center_axis',(0.,0.,-1.));
#1227=DIRECTION('ref_axis',(-1.,0.,0.));
#1228=DIRECTION('',(0.,-1.,0.));
#1229=DIRECTION('center_axis',(0.,0.,-1.));
#1230=DIRECTION('ref_axis',(1.,-5.5511151231257E-15,0.));
#1231=DIRECTION('center_axis',(0.,0.,1.));
#1232=DIRECTION('ref_axis',(0.,-1.,0.));
#1233=DIRECTION('center_axis',(0.,0.,-1.));
#1234=DIRECTION('ref_axis',(0.,-1.,0.));
#1235=DIRECTION('center_axis',(0.,0.,1.));
#1236=DIRECTION('ref_axis',(-1.,0.,0.));
#1237=DIRECTION('center_axis',(0.,0.,-1.));
#1238=DIRECTION('ref_axis',(6.93889390390723E-17,-1.,0.));
#1239=DIRECTION('center_axis',(0.,0.,-1.));
#1240=DIRECTION('ref_axis',(-1.,0.,0.));
#1241=DIRECTION('center_axis',(0.,0.,1.));
#1242=DIRECTION('ref_axis',(-1.,0.,0.));
#1243=DIRECTION('center_axis',(0.,0.,1.));
#1244=DIRECTION('ref_axis',(1.,0.,0.));
#1245=DIRECTION('',(0.,-1.,0.));
#1246=DIRECTION('center_axis',(0.,0.,1.));
#1247=DIRECTION('ref_axis',(-1.,0.,0.));
#1248=DIRECTION('center_axis',(0.,0.,-1.));
#1249=DIRECTION('ref_axis',(0.,-1.,0.));
#1250=DIRECTION('center_axis',(0.,0.,-1.));
#1251=DIRECTION('ref_axis',(-1.,0.,0.));
#1252=DIRECTION('center_axis',(0.,0.,1.));
#1253=DIRECTION('ref_axis',(1.,0.,0.));
#1254=DIRECTION('',(0.,0.,1.));
#1255=DIRECTION('',(1.,0.,0.));
#1256=CARTESIAN_POINT('',(0.,0.,0.));
#1257=CARTESIAN_POINT('',(0.,0.,0.));
#1258=CARTESIAN_POINT('Origin',(84.25,0.75,0.75));
#1259=CARTESIAN_POINT('',(83.5,1.5,1.5));
#1260=CARTESIAN_POINT('',(85.,1.5,0.));
#1261=CARTESIAN_POINT('',(66.5,1.5,18.5));
#1262=CARTESIAN_POINT('',(85.,0.,0.));
#1263=CARTESIAN_POINT('',(85.,0.75,0.));
#1264=CARTESIAN_POINT('',(83.5,0.,1.5));
#1265=CARTESIAN_POINT('',(66.5,0.,18.5));
#1266=CARTESIAN_POINT('',(83.5,0.75,1.5));
#1267=CARTESIAN_POINT('Origin',(83.5,1.5,0.));
#1268=CARTESIAN_POINT('',(83.5,0.,9.));
#1269=CARTESIAN_POINT('',(83.5,0.,15.5));
#1270=CARTESIAN_POINT('',(83.5,1.5,9.));
#1271=CARTESIAN_POINT('',(83.5,1.5,9.));
#1272=CARTESIAN_POINT('',(83.5,1.5,15.5));
#1273=CARTESIAN_POINT('Origin',(43.5,0.,31.));
#1274=CARTESIAN_POINT('',(86.5,0.,0.));
#1275=CARTESIAN_POINT('',(0.,0.,0.));
#1276=CARTESIAN_POINT('',(86.5,0.,62.));
#1277=CARTESIAN_POINT('',(86.5,0.,46.5));
#1278=CARTESIAN_POINT('',(0.5,0.,62.));
#1279=CARTESIAN_POINT('',(87.,0.,62.));
#1280=CARTESIAN_POINT('',(0.5,0.,0.));
#1281=CARTESIAN_POINT('',(0.499999999999998,0.,15.5));
#1282=CARTESIAN_POINT('',(3.00000000000001,0.,0.));
#1283=CARTESIAN_POINT('',(0.,0.,0.));
#1284=CARTESIAN_POINT('',(4.50000000000001,0.,1.5));
#1285=CARTESIAN_POINT('',(21.25,-6.93889390390723E-17,18.25));
#1286=CARTESIAN_POINT('',(4.50000000000001,0.,9.));
#1287=CARTESIAN_POINT('',(4.50000000000001,0.,20.));
#1288=CARTESIAN_POINT('',(63.5,0.,9.));
#1289=CARTESIAN_POINT('',(46.65,0.,19.5));
#1290=CARTESIAN_POINT('Origin',(45.,0.,19.5));
#1291=CARTESIAN_POINT('',(79.65,0.,57.));
#1292=CARTESIAN_POINT('Origin',(78.,0.,57.));
#1293=CARTESIAN_POINT('',(10.65,0.,39.5));
#1294=CARTESIAN_POINT('Origin',(9.,0.,39.5));
#1295=CARTESIAN_POINT('Origin',(3.75000000000001,0.75,0.75));
#1296=CARTESIAN_POINT('',(3.00000000000001,1.5,0.));
#1297=CARTESIAN_POINT('',(3.00000000000001,0.75,0.));
#1298=CARTESIAN_POINT('',(4.50000000000001,1.5,1.5));
#1299=CARTESIAN_POINT('',(21.25,1.5,18.25));
#1300=CARTESIAN_POINT('',(4.50000000000001,0.75,1.5));
#1301=CARTESIAN_POINT('Origin',(4.50000000000001,1.5,9.));
#1302=CARTESIAN_POINT('',(4.50000000000001,1.5,9.));
#1303=CARTESIAN_POINT('',(4.50000000000001,1.5,20.));
#1304=CARTESIAN_POINT('',(4.50000000000001,1.5,9.));
#1305=CARTESIAN_POINT('Origin',(88.5000000000001,3.75,61.25));
#1306=CARTESIAN_POINT('',(87.,4.5,60.5));
#1307=CARTESIAN_POINT('',(87.,3.,62.));
#1308=CARTESIAN_POINT('',(87.,12.7722345326147,52.2277654673852));
#1309=CARTESIAN_POINT('',(88.5,3.,62.));
#1310=CARTESIAN_POINT('',(88.5000000000001,3.,62.));
#1311=CARTESIAN_POINT('',(88.5,4.5,60.5));
#1312=CARTESIAN_POINT('',(88.5000000000001,12.7722345326147,52.2277654673852));
#1313=CARTESIAN_POINT('',(88.5000000000001,4.5,60.5));
#1314=CARTESIAN_POINT('Origin',(87.,9.58893813045895,31.));
#1315=CARTESIAN_POINT('',(87.,4.5,10.));
#1316=CARTESIAN_POINT('',(87.,4.5,33.5));
#1317=CARTESIAN_POINT('',(87.0000000000001,18.5,10.));
#1318=CARTESIAN_POINT('',(87.0000000000001,15.0444690652295,10.));
#1319=CARTESIAN_POINT('',(87.0000000000001,18.5,0.));
#1320=CARTESIAN_POINT('',(87.0000000000001,18.5,15.5));
#1321=CARTESIAN_POINT('',(87.,1.99999999999999,-4.44089209850063E-15));
#1322=CARTESIAN_POINT('',(87.,-1.64424747816415,-4.44089209850063E-15));
#1323=CARTESIAN_POINT('',(87.,1.99999999999999,62.));
#1324=CARTESIAN_POINT('',(87.,1.99999999999999,31.));
#1325=CARTESIAN_POINT('',(87.,-1.64424747816415,62.));
#1326=CARTESIAN_POINT('Origin',(90.0000000000001,4.5,36.));
#1327=CARTESIAN_POINT('',(88.5,4.5,10.));
#1328=CARTESIAN_POINT('',(88.5,4.5,33.5));
#1329=CARTESIAN_POINT('',(85.0000000000001,4.5,10.));
#1330=CARTESIAN_POINT('Origin',(-1.5,3.75,61.25));
#1331=CARTESIAN_POINT('',(-1.5,4.5,60.5));
#1332=CARTESIAN_POINT('',(-1.5,3.,62.));
#1333=CARTESIAN_POINT('',(-1.5,12.7722345326147,52.2277654673853));
#1334=CARTESIAN_POINT('',(-2.77809832021292E-16,3.,62.));
#1335=CARTESIAN_POINT('',(-1.5,3.,62.));
#1336=CARTESIAN_POINT('',(-2.77555756156289E-16,4.5,60.5));
#1337=CARTESIAN_POINT('',(-6.93889390390723E-16,12.7722345326147,52.2277654673853));
#1338=CARTESIAN_POINT('',(-1.5,4.5,60.5));
#1339=CARTESIAN_POINT('Origin',(-5.55111512312578E-16,9.58893813045896,
31.));
#1340=CARTESIAN_POINT('',(-2.77555756156289E-16,2.,62.));
#1341=CARTESIAN_POINT('',(0.,-1.64424747816416,62.));
#1342=CARTESIAN_POINT('',(-2.77555756156289E-16,2.,-4.44089209850063E-15));
#1343=CARTESIAN_POINT('',(0.,2.,31.));
#1344=CARTESIAN_POINT('',(-1.11022302462516E-15,18.5,0.));
#1345=CARTESIAN_POINT('',(0.,-1.64424747816416,-4.44089209850063E-15));
#1346=CARTESIAN_POINT('',(-1.11022302462516E-15,18.5,9.99999999999999));
#1347=CARTESIAN_POINT('',(-1.11022302462516E-15,18.5,46.5));
#1348=CARTESIAN_POINT('',(-2.77555756156289E-16,4.5,9.99999999999999));
#1349=CARTESIAN_POINT('',(-1.11022302462516E-15,15.0444690652295,9.99999999999999));
#1350=CARTESIAN_POINT('',(-2.77555756156289E-16,4.5,33.5));
#1351=CARTESIAN_POINT('Origin',(-2.77555756156289E-16,0.17787626091792,
62.));
#1352=CARTESIAN_POINT('',(-1.5,2.,62.));
#1353=CARTESIAN_POINT('',(-1.5,-1.64424747816416,62.));
#1354=CARTESIAN_POINT('',(-0.33,2.,62.));
#1355=CARTESIAN_POINT('Origin',(83.5,1.5,9.));
#1356=CARTESIAN_POINT('',(63.5,1.5,9.));
#1357=CARTESIAN_POINT('Origin',(43.5,1.5,31.));
#1358=CARTESIAN_POINT('',(0.5,1.5,0.));
#1359=CARTESIAN_POINT('',(0.,1.5,0.));
#1360=CARTESIAN_POINT('',(0.5,1.5,62.));
#1361=CARTESIAN_POINT('',(0.499999999999998,1.5,15.5));
#1362=CARTESIAN_POINT('',(86.5,1.5,62.));
#1363=CARTESIAN_POINT('',(87.,1.5,62.));
#1364=CARTESIAN_POINT('',(86.5,1.5,0.));
#1365=CARTESIAN_POINT('',(86.5,1.5,46.5));
#1366=CARTESIAN_POINT('',(0.,1.5,0.));
#1367=CARTESIAN_POINT('',(10.65,1.5,39.5));
#1368=CARTESIAN_POINT('Origin',(9.,1.5,39.5));
#1369=CARTESIAN_POINT('',(79.65,1.5,57.));
#1370=CARTESIAN_POINT('Origin',(78.,1.5,57.));
#1371=CARTESIAN_POINT('',(46.65,1.5,19.5));
#1372=CARTESIAN_POINT('Origin',(45.,1.5,19.5));
#1373=CARTESIAN_POINT('Origin',(87.,0.,0.));
#1374=CARTESIAN_POINT('',(0.500000000000007,0.75,0.));
#1375=CARTESIAN_POINT('Origin',(45.,20.5,19.5));
#1376=CARTESIAN_POINT('',(46.65,20.5,19.5));
#1377=CARTESIAN_POINT('Origin',(-5.,20.5,5.));
#1378=CARTESIAN_POINT('',(-3.,20.5,5.));
#1379=CARTESIAN_POINT('Origin',(-5.,20.5,5.));
#1380=CARTESIAN_POINT('',(-3.,19.,5.));
#1381=CARTESIAN_POINT('',(-3.,20.5,5.));
#1382=CARTESIAN_POINT('Origin',(-5.,19.,5.));
#1383=CARTESIAN_POINT('Origin',(78.,20.5,57.));
#1384=CARTESIAN_POINT('',(79.65,20.5,57.));
#1385=CARTESIAN_POINT('Origin',(9.,20.5,39.5));
#1386=CARTESIAN_POINT('',(10.65,20.5,39.5));
#1387=CARTESIAN_POINT('Origin',(92.,20.5,5.));
#1388=CARTESIAN_POINT('',(94.,20.5,5.));
#1389=CARTESIAN_POINT('Origin',(92.,20.5,5.));
#1390=CARTESIAN_POINT('',(94.,19.,5.));
#1391=CARTESIAN_POINT('',(94.,20.5,5.));
#1392=CARTESIAN_POINT('Origin',(92.,19.,5.));
#1393=CARTESIAN_POINT('Origin',(-3.,4.5,36.));
#1394=CARTESIAN_POINT('',(-1.5,4.5,9.99999999999999));
#1395=CARTESIAN_POINT('',(2.,4.5,9.99999999999999));
#1396=CARTESIAN_POINT('',(-1.5,4.5,33.5));
#1397=CARTESIAN_POINT('Origin',(-8.,20.5,9.99999999999999));
#1398=CARTESIAN_POINT('',(-2.,20.5,9.99999999999999));
#1399=CARTESIAN_POINT('Origin',(-2.,18.5,9.99999999999999));
#1400=CARTESIAN_POINT('',(-8.,20.5,9.99999999999999));
#1401=CARTESIAN_POINT('',(-6.04446906522948,20.5,9.99999999999999));
#1402=CARTESIAN_POINT('',(-8.,19.,9.99999999999999));
#1403=CARTESIAN_POINT('',(-8.,19.75,9.99999999999999));
#1404=CARTESIAN_POINT('',(-2.,19.,9.99999999999999));
#1405=CARTESIAN_POINT('',(-6.04446906522948,19.,9.99999999999999));
#1406=CARTESIAN_POINT('',(-1.5,18.5,9.99999999999999));
#1407=CARTESIAN_POINT('Origin',(-2.,18.5,9.99999999999999));
#1408=CARTESIAN_POINT('',(-1.5,15.0444690652295,9.99999999999999));
#1409=CARTESIAN_POINT('Origin',(85.0000000000001,20.5,10.));
#1410=CARTESIAN_POINT('',(88.5000000000001,18.5,10.));
#1411=CARTESIAN_POINT('',(88.5000000000001,15.0444690652295,10.));
#1412=CARTESIAN_POINT('',(89.0000000000001,19.,10.));
#1413=CARTESIAN_POINT('Origin',(89.0000000000001,18.5,10.));
#1414=CARTESIAN_POINT('',(95.0000000000001,18.9999999999999,10.));
#1415=CARTESIAN_POINT('',(88.0444690652295,19.,10.));
#1416=CARTESIAN_POINT('',(95.0000000000001,20.5,10.));
#1417=CARTESIAN_POINT('',(95.,19.7499999999999,10.));
#1418=CARTESIAN_POINT('',(89.0000000000001,20.5,10.));
#1419=CARTESIAN_POINT('',(88.0444690652295,20.5,10.));
#1420=CARTESIAN_POINT('Origin',(89.0000000000001,18.5,10.));
#1421=CARTESIAN_POINT('Origin',(-1.5,9.58893813045896,31.));
#1422=CARTESIAN_POINT('',(-1.5,18.5,0.));
#1423=CARTESIAN_POINT('',(-1.5,18.5,46.5));
#1424=CARTESIAN_POINT('',(-1.5,2.,0.));
#1425=CARTESIAN_POINT('',(-1.5,2.,0.));
#1426=CARTESIAN_POINT('',(-1.5,2.,31.));
#1427=CARTESIAN_POINT('Origin',(-2.,18.5,31.));
#1428=CARTESIAN_POINT('',(-2.,19.,0.));
#1429=CARTESIAN_POINT('',(-2.,19.,31.));
#1430=CARTESIAN_POINT('Origin',(-2.,18.5,0.));
#1431=CARTESIAN_POINT('Origin',(88.5,9.58893813045895,31.));
#1432=CARTESIAN_POINT('',(88.5,1.99999999999999,62.));
#1433=CARTESIAN_POINT('',(88.5,1.99999999999999,62.));
#1434=CARTESIAN_POINT('',(88.5,1.99999999999999,-4.44089209850063E-15));
#1435=CARTESIAN_POINT('',(88.5,1.99999999999999,31.));
#1436=CARTESIAN_POINT('',(88.5000000000001,18.5,0.));
#1437=CARTESIAN_POINT('',(88.5,-1.64424747816415,-4.44089209850063E-15));
#1438=CARTESIAN_POINT('',(88.5000000000001,18.5,15.5));
#1439=CARTESIAN_POINT('Origin',(89.0000000000001,18.5,31.));
#1440=CARTESIAN_POINT('',(89.0000000000001,20.5,0.));
#1441=CARTESIAN_POINT('',(89.0000000000001,20.5,31.));
#1442=CARTESIAN_POINT('Origin',(89.0000000000001,18.5,0.));
#1443=CARTESIAN_POINT('Origin',(87.0000000000001,19.,62.));
#1444=CARTESIAN_POINT('',(87.33,1.99999999999999,62.));
#1445=CARTESIAN_POINT('Origin',(91.088938130459,19.,31.));
#1446=CARTESIAN_POINT('',(89.0000000000001,19.,0.));
#1447=CARTESIAN_POINT('',(89.0000000000001,19.,31.));
#1448=CARTESIAN_POINT('',(95.,18.9999999999999,0.));
#1449=CARTESIAN_POINT('',(85.3557525218359,19.,0.));
#1450=CARTESIAN_POINT('',(95.,18.9999999999999,0.));
#1451=CARTESIAN_POINT('Origin',(89.0000000000001,19.,0.));
#1452=CARTESIAN_POINT('',(89.0000000000001,19.33,0.));
#1453=CARTESIAN_POINT('Origin',(89.0000000000001,18.5,0.));
#1454=CARTESIAN_POINT('',(87.7500000000001,18.5,-4.44089209850063E-15));
#1455=CARTESIAN_POINT('Origin',(95.,18.9999999999999,0.));
#1456=CARTESIAN_POINT('',(95.0000000000001,20.4999999999999,0.));
#1457=CARTESIAN_POINT('',(89.0000000000001,20.5,0.));
#1458=CARTESIAN_POINT('',(95.,18.9999999999999,0.));
#1459=CARTESIAN_POINT('Origin',(95.,18.9999999999999,62.));
#1460=CARTESIAN_POINT('',(95.0000000000001,20.4999999999999,0.));
#1461=CARTESIAN_POINT('Origin',(89.0000000000001,18.5,31.));
#1462=CARTESIAN_POINT('Origin',(91.088938130459,20.5,31.));
#1463=CARTESIAN_POINT('Origin',(-2.,18.5,31.));
#1464=CARTESIAN_POINT('',(-2.,20.5,0.));
#1465=CARTESIAN_POINT('Origin',(-2.,18.5,0.));
#1466=CARTESIAN_POINT('',(-2.,20.5,31.));
#1467=CARTESIAN_POINT('Origin',(-0.177876260917924,19.,0.));
#1468=CARTESIAN_POINT('',(-2.,19.33,0.));
#1469=CARTESIAN_POINT('',(-8.,19.,0.));
#1470=CARTESIAN_POINT('',(1.64424747816416,19.,0.));
#1471=CARTESIAN_POINT('',(-8.,20.5,0.));
#1472=CARTESIAN_POINT('',(-8.,19.,0.));
#1473=CARTESIAN_POINT('',(1.64424747816416,20.5,0.));
#1474=CARTESIAN_POINT('Origin',(-4.08893813045896,19.,31.));
#1475=CARTESIAN_POINT('',(-8.,19.,62.));
#1476=CARTESIAN_POINT('Origin',(-2.,20.5,0.));
#1477=CARTESIAN_POINT('',(-0.750000000000001,18.5,0.));
#1478=CARTESIAN_POINT('Origin',(-8.,19.,0.));
#1479=CARTESIAN_POINT('',(-8.,20.5,62.));
#1480=CARTESIAN_POINT('Origin',(-4.08893813045896,20.5,31.));
#1481=CARTESIAN_POINT('Origin',(-1.11022302462516E-15,19.,0.));
#1482=CARTESIAN_POINT('',(-0.33,2.,0.));
#1483=CARTESIAN_POINT('Origin',(86.5,1.99999999999999,31.));
#1484=CARTESIAN_POINT('Origin',(86.5,1.99999999999999,62.));
#1485=CARTESIAN_POINT('Origin',(86.5,1.99999999999999,-4.44089209850063E-15));
#1486=CARTESIAN_POINT('Origin',(87.,0.17787626091792,-4.44089209850063E-15));
#1487=CARTESIAN_POINT('',(87.33,1.99999999999999,-4.44089209850063E-15));
#1488=CARTESIAN_POINT('Origin',(87.,1.99999999999999,62.));
#1489=CARTESIAN_POINT('Origin',(86.5,1.99999999999999,62.));
#1490=CARTESIAN_POINT('',(86.5,0.75,62.));
#1491=CARTESIAN_POINT('Origin',(88.5,1.99999999999998,-4.44089209850063E-15));
#1492=CARTESIAN_POINT('',(86.5,0.75,0.));
#1493=CARTESIAN_POINT('Origin',(86.5,1.99999999999999,-4.44089209850063E-15));
#1494=CARTESIAN_POINT('Origin',(86.5,1.99999999999999,31.));
#1495=CARTESIAN_POINT('Origin',(0.5,2.,31.));
#1496=CARTESIAN_POINT('Origin',(0.5,2.,0.));
#1497=CARTESIAN_POINT('Origin',(0.5,2.,62.));
#1498=CARTESIAN_POINT('Origin',(-3.46944695195361E-16,2.,0.));
#1499=CARTESIAN_POINT('Origin',(0.5,2.,-4.44089209850063E-15));
#1500=CARTESIAN_POINT('Origin',(-1.5,2.,62.));
#1501=CARTESIAN_POINT('',(0.5,0.75,62.));
#1502=CARTESIAN_POINT('Origin',(0.5,2.,62.));
#1503=CARTESIAN_POINT('Origin',(0.5,2.,31.));
#1504=CARTESIAN_POINT('Origin',(87.,0.,0.));
#1505=CARTESIAN_POINT('Origin',(0.,0.,62.));
#1506=CARTESIAN_POINT('',(0.,0.,0.));
#1507=UNCERTAINTY_MEASURE_WITH_UNIT(LENGTH_MEASURE(0.01),#1513,
'DISTANCE_ACCURACY_VALUE',
'Maximum model space distance between geometric entities at asserted c
onnectivities');
#1508=UNCERTAINTY_MEASURE_WITH_UNIT(LENGTH_MEASURE(0.01),#1513,
'DISTANCE_ACCURACY_VALUE',
'Maximum model space distance between geometric entities at asserted c
onnectivities');
#1509=UNCERTAINTY_MEASURE_WITH_UNIT(LENGTH_MEASURE(0.01),#1513,
'DISTANCE_ACCURACY_VALUE',
'Maximum model space distance between geometric entities at asserted c
onnectivities');
#1510=(
GEOMETRIC_REPRESENTATION_CONTEXT(3)
GLOBAL_UNCERTAINTY_ASSIGNED_CONTEXT((#1507))
GLOBAL_UNIT_ASSIGNED_CONTEXT((#1513,#1515,#1516))
REPRESENTATION_CONTEXT('','3D')
);
#1511=(
GEOMETRIC_REPRESENTATION_CONTEXT(3)
GLOBAL_UNCERTAINTY_ASSIGNED_CONTEXT((#1508))
GLOBAL_UNIT_ASSIGNED_CONTEXT((#1513,#1515,#1516))
REPRESENTATION_CONTEXT('','3D')
);
#1512=(
GEOMETRIC_REPRESENTATION_CONTEXT(3)
GLOBAL_UNCERTAINTY_ASSIGNED_CONTEXT((#1509))
GLOBAL_UNIT_ASSIGNED_CONTEXT((#1513,#1515,#1516))
REPRESENTATION_CONTEXT('','3D')
);
#1513=(
LENGTH_UNIT()
NAMED_UNIT(*)
SI_UNIT(.MILLI.,.METRE.)
);
#1514=(
LENGTH_UNIT()
NAMED_UNIT(*)
SI_UNIT($,.METRE.)
);
#1515=(
NAMED_UNIT(*)
PLANE_ANGLE_UNIT()
SI_UNIT($,.RADIAN.)
);
#1516=(
NAMED_UNIT(*)
SI_UNIT($,.STERADIAN.)
SOLID_ANGLE_UNIT()
);
#1517=SHAPE_DEFINITION_REPRESENTATION(#1519,#1522);
#1518=SHAPE_DEFINITION_REPRESENTATION(#1520,#1523);
#1519=PRODUCT_DEFINITION_SHAPE('',$,#1525);
#1520=PRODUCT_DEFINITION_SHAPE('',$,#1526);
#1521=PRODUCT_DEFINITION_SHAPE($,$,#14);
#1522=SHAPE_REPRESENTATION('',(#919,#998),#1510);
#1523=SHAPE_REPRESENTATION('',(#920),#1511);
#1524=PRODUCT_DEFINITION_CONTEXT('part definition',#1532,'design');
#1525=PRODUCT_DEFINITION('B1 Bracket','B1 Bracket v3',#1527,#1524);
#1526=PRODUCT_DEFINITION('Bracket','Bracket',#1528,#1524);
#1527=PRODUCT_DEFINITION_FORMATION('',$,#1534);
#1528=PRODUCT_DEFINITION_FORMATION('',$,#1535);
#1529=PRODUCT_RELATED_PRODUCT_CATEGORY('B1 Bracket v3','B1 Bracket v3',
(#1534));
#1530=PRODUCT_RELATED_PRODUCT_CATEGORY('Bracket','Bracket',(#1535));
#1531=APPLICATION_PROTOCOL_DEFINITION('international standard',
'automotive_design',2009,#1532);
#1532=APPLICATION_CONTEXT(
'Core Data for Automotive Mechanical Design Process');
#1533=PRODUCT_CONTEXT('part definition',#1532,'mechanical');
#1534=PRODUCT('B1 Bracket','B1 Bracket v3',$,(#1533));
#1535=PRODUCT('Bracket','Bracket',$,(#1533));
#1536=PRESENTATION_STYLE_ASSIGNMENT((#1537));
#1537=SURFACE_STYLE_USAGE(.BOTH.,#1538);
#1538=SURFACE_SIDE_STYLE('',(#1539));
#1539=SURFACE_STYLE_FILL_AREA(#1540);
#1540=FILL_AREA_STYLE('Steel - Satin',(#1541));
#1541=FILL_AREA_STYLE_COLOUR('Steel - Satin',#1542);
#1542=COLOUR_RGB('Steel - Satin',0.627450980392157,0.627450980392157,0.627450980392157);
ENDSEC;
END-ISO-10303-21;
