0
SECTION
2
HEADER
9
$INSUNITS
70
4
9
$ACADVER
1
AC1014
9
$HANDSEED
5
FFFF
0
ENDSEC
0
SECTION
2
TABLES
0
TABLE
2
VPORT
5
8
100
AcDbSymbolTable
0
ENDTAB
0
TABLE
2
LTYPE
5
5
100
AcDbSymbolTable
0
LTYPE
5
14
100
AcDbSymbolTableRecord
100
AcDbLinetypeTableRecord
2
BYBLOCK
70
0
0
LTYPE
5
15
100
AcDbSymbolTableRecord
100
AcDbLinetypeTableRecord
2
BYLAYER
70
0
0
LTYPE
5
16
100
AcDbSymbolTableRecord
100
AcDbLinetypeTableRecord
2
DASHED
70
0
3
Dashed __ __ __ __ __ __ __ __ __ __ __ __ __ _
72
65
73
2
40
0.75
49
0.5
74
0
49
-0.25
74
0
0
ENDTAB
0
TABLE
2
LAYER
5
2
100
AcDbSymbolTable
70
2
0
LAYER
5
50
100
AcDbSymbolTableRecord
100
AcDbLayerTableRecord
2
0
70
0
62
7
6
CONTINUOUS
0
ENDTAB
0
TABLE
2
STYLE
5
3
100
AcDbSymbolTable
70
1
0
STYLE
5
11
100
AcDbSymbolTableRecord
100
AcDbTextStyleTableRecord
2
STANDARD
70
0
0
ENDTAB
0
TABLE
2
VIEW
5
6
100
AcDbSymbolTable
70
0
0
ENDTAB
0
TABLE
2
UCS
5
7
100
AcDbSymbolTable
70
0
0
ENDTAB
0
TABLE
2
APPID
5
9
100
AcDbSymbolTable
70
2
0
APPID
5
12
100
AcDbSymbolTableRecord
100
AcDbRegAppTableRecord
2
ACAD
70
0
0
ENDTAB
0
TABLE
2
DIMSTYLE
5
A
100
AcDbSymbolTable
70
1
0
ENDTAB
0
TABLE
2
BLOCK_RECORD
5
1
100
AcDbSymbolTable
70
1
0
BLOCK_RECORD
5
1F
100
AcDbSymbolTableRecord
100
AcDbBlockTableRecord
2
*MODEL_SPACE
0
BLOCK_RECORD
5
1B
100
AcDbSymbolTableRecord
100
AcDbBlockTableRecord
2
*PAPER_SPACE
0
ENDTAB
0
ENDSEC
0
SECTION
2
BLOCKS
0
BLOCK
5
20
100
AcDbEntity
100
AcDbBlockBegin
2
*MODEL_SPACE
0
ENDBLK
5
21
100
AcDbEntity
100
AcDbBlockEnd
0
BLOCK
5
1C
100
AcDbEntity
100
AcDbBlockBegin
2
*PAPER_SPACE
0
ENDBLK
5
1D
100
AcDbEntity
100
AcDbBlockEnd
0
ENDSEC
0
SECTION
2
ENTITIES
0
CIRCLE
5
100
100
AcDbEntity
8
0
100
AcDbCircle
10
-6.0000000000000009
20
-53.000000000000014
30
0
40
1.599999999999997
210
0
220
-0
230
1
0
CIRCLE
5
101
100
AcDbEntity
8
0
100
AcDbCircle
10
-77.299999999999983
20
-25.000000000000004
30
0
40
1.6000000000000014
210
0
220
-0
230
1
0
CIRCLE
5
102
100
AcDbEntity
8
0
100
AcDbCircle
10
-130.69999999999999
20
-110
30
0
40
1.6000000000000014
210
0
220
-0
230
1
0
CIRCLE
5
103
100
AcDbEntity
8
0
100
AcDbCircle
10
-145.69999999999999
20
-38
30
0
40
1.6000000000000014
210
0
220
-0
230
1
0
CIRCLE
5
104
100
AcDbEntity
8
0
100
AcDbCircle
10
-94.299999999999997
20
-125
30
0
40
1.6000000000000014
210
0
220
-0
230
1
0
CIRCLE
5
105
100
AcDbEntity
8
0
100
AcDbCircle
10
-112.70000000000002
20
-5.4000000000000021
30
0
40
1.6000000000000014
210
0
220
-0
230
1
0
CIRCLE
5
106
100
AcDbEntity
8
0
100
AcDbCircle
10
-6.0000000000000009
20
-108
30
0
40
1.5999999999999979
210
0
220
-0
230
1
0
LWPOLYLINE
5
107
100
AcDbEntity
8
0
100
AcDbPolyline
90
26
70
1
43
0.0
10
-35.300000000000004
20
-89.633218852156062
42
0.99999999999999989
10
-33.299999999999997
20
-89.633218852156062
10
-33.299999999999997
20
-64.000000000000014
42
-0.41421356237309509
10
-31.299999999999997
20
-62.000000000000014
10
-6.0000000000000009
20
-62
42
-0.41421356237309509
10
-4
20
-64
10
-4.0000000000000107
20
-103.50000000000001
42
-0.41421356237309481
10
-6.0000000000000018
20
-105.5
42
0.99999999999999989
10
-6.0000000000000044
20
-110.5
42
-0.41421356237309509
10
-4.0000000000000036
20
-112.5
10
-4.0000000000000124
20
-125.00000000000001
42
-0.41421356237309509
10
-6.0000000000000053
20
-127.00000000000001
10
-14.500000283122443
20
-127.00000000000001
42
-0.41421344113840597
10
-16.500000283122272
20
-125.00000082784229
42
0.99999958604003492
10
-21.500000283121864
20
-125.00000082784229
42
-0.41421344113840597
10
-23.500000283121683
20
-127.00000000000001
10
-71.300000000000011
20
-127.00000000000003
42
-0.4142135623730937
10
-73.299999999999997
20
-125.00000000000001
10
-73.300000000000011
20
-74.800000000000011
42
-0.41421356237309509
10
-71.300000000000011
20
-72.799999999999997
10
-48.799999999999997
20
-72.799999999999997
42
-0.41421356237309509
10
-46.799999999999997
20
-74.800000000000011
42
0.99999999999999989
10
-41.799999999999997
20
-74.800000000000011
42
-0.41421356237309509
10
-39.799999999999997
20
-72.799999999999997
10
-37.300000000000004
20
-72.799999999999997
42
-0.41421356237309509
10
-35.300000000000004
20
-74.800000000000011
0
LINE
5
108
100
AcDbEntity
8
0
100
AcDbLine
10
-71.23266210163402
20
-21
30
0
11
-145.70000000000002
21
-21
31
0
0
ARC
5
109
100
AcDbEntity
8
0
100
AcDbCircle
10
-145.70000000000002
20
-19
30
0
40
1.9999999999999929
210
0
220
0
230
1
100
AcDbArc
50
180
51
270
0
LINE
5
110
100
AcDbEntity
8
0
100
AcDbLine
10
-147.70000000000002
20
-19
30
0
11
-147.70000000000002
21
-5.4000000000000021
31
0
0
ARC
5
111
100
AcDbEntity
8
0
100
AcDbCircle
10
-145.70000000000002
20
-5.4000000000000021
30
0
40
2
210
0
220
-0
230
1
100
AcDbArc
50
90
51
180
0
LINE
5
112
100
AcDbEntity
8
0
100
AcDbLine
10
-145.70000000000002
20
-3.4000000000000026
30
0
11
-117.20000000000002
21
-3.4000000000000026
31
0
0
ARC
5
113
100
AcDbEntity
8
0
100
AcDbCircle
10
-117.20000000000002
20
-5.4000000000000039
30
0
40
1.9999999999999929
210
0
220
-0
230
1
100
AcDbArc
50
0
51
90
0
ARC
5
114
100
AcDbEntity
8
0
100
AcDbCircle
10
-112.70000000000002
20
-5.4000000000000021
30
0
40
2.5000000000000178
210
0
220
0
230
1
100
AcDbArc
50
180
51
360
0
ARC
5
115
100
AcDbEntity
8
0
100
AcDbCircle
10
-108.2
20
-5.4000000000000021
30
0
40
2
210
0
220
-0
230
1
100
AcDbArc
50
90
51
180
0
LINE
5
116
100
AcDbEntity
8
0
100
AcDbLine
10
-108.2
20
-3.4000000000000026
30
0
11
-71.23266210163402
21
-3.400000000000003
31
0
0
ARC
5
117
100
AcDbEntity
8
0
100
AcDbCircle
10
-71.23266210163402
20
-5.4000000000000021
30
0
40
2.0000000000000018
210
0
220
0
230
1
100
AcDbArc
50
0
51
90
0
CIRCLE
5
118
100
AcDbEntity
8
0
100
AcDbCircle
10
-145.69999999999999
20
-91.000000000000014
30
0
40
1.6000000000000014
210
0
220
-0
230
1
0
CIRCLE
5
119
100
AcDbEntity
8
0
100
AcDbCircle
10
-19
20
-125
30
0
40
1.5999999999999948
210
0
220
-0
230
1
0
LWPOLYLINE
5
120
100
AcDbEntity
8
0
100
AcDbPolyline
90
36
70
1
43
0.0
10
-108.0611517127433
20
-114
42
0.41421356237309509
10
-110.0611517127433
20
-112.00000000000001
10
-126.20000000000002
20
-112.00000000000001
42
-0.41421356237309509
10
-128.19999999999999
20
-110.00000000000001
42
0.99999999999999989
10
-133.19999999999999
20
-110.00000000000001
42
-0.41421356237309509
10
-135.19999999999999
20
-112.00000000000001
10
-145.70000000000002
20
-112.00000000000001
42
-0.41421356237309509
10
-147.70000000000002
20
-110.00000000000001
10
-147.70000000000002
20
-95.5
42
-0.41421356237309509
10
-145.70000000000002
20
-93.500000000000014
42
0.99999999999999989
10
-145.70000000000002
20
-88.500000000000014
42
-0.41421356237309509
10
-147.70000000000002
20
-86.500000000000028
10
-147.70000000000005
20
-42.5
42
-0.41421356237309509
10
-145.70000000000002
20
-40.5
42
0.99999999999999989
10
-145.70000000000002
20
-35.499999999999993
42
-0.41421356237309509
10
-147.70000000000002
20
-33.5
10
-147.70000000000005
20
-25.000000000000004
42
-0.41421356237309509
10
-145.70000000000002
20
-23.000000000000004
10
-81.799999999999997
20
-23.000000000000007
42
-0.41421356237309509
10
-79.799999999999997
20
-25.000000000000007
42
0.99999999999999989
10
-74.799999999999983
20
-25.000000000000004
42
-0.41421356237309509
10
-72.799999999999983
20
-23.000000000000004
10
-37.300000000000004
20
-23.000000000000007
42
-0.41421356237309509
10
-35.300000000000004
20
-25.000000000000007
10
-35.300000000000004
20
-68.800000000000011
42
-0.41421356237309509
10
-37.300000000000004
20
-70.800000000000011
10
-73.299999999999997
20
-70.800000000000011
42
0.41421356237309109
10
-75.299999999999997
20
-72.800000000000011
10
-75.299999999999997
20
-125.00000000000001
42
-0.41421356237309509
10
-77.299999999999983
20
-127.00000000000001
10
-89.800000000000011
20
-127.00000000000001
42
-0.41421356237309509
10
-91.799999999999997
20
-125.00000000000001
42
0.99999999999999989
10
-96.799999999999997
20
-125.00000000000001
42
-0.41421356237309509
10
-98.799999999999983
20
-127.00000000000001
10
-106.06115171274331
20
-127.00000000000001
42
-0.41421356237309509
10
-108.0611517127433
20
-125.00000000000001
0
LWPOLYLINE
5
121
100
AcDbEntity
8
0
100
AcDbPolyline
90
16
70
1
43
0.0
10
-4.0000000000000018
20
-57.500000000000014
10
-3.9999999999999991
20
-58.000000000000014
42
-0.41421356237309509
10
-6.0000000000000009
20
-60.000000000000014
10
-31.299999999999997
20
-60.000000000000028
42
-0.41421356237309509
10
-33.299999999999997
20
-58.000000000000028
10
-33.299999999999997
20
-25.000000000000004
42
-0.41421356237309509
10
-31.299999999999997
20
-23.000000000000004
10
-21.500000000000004
20
-23.000000000000007
42
-0.41421356237309509
10
-19.500000000000004
20
-25.000000000000004
42
0.99999999999999989
10
-14.500000000000004
20
-24.999999999999996
42
-0.41421356237309437
10
-12.500000000000002
20
-23
10
-6.0000000000000009
20
-23.000000000000004
42
-0.41421356237309509
10
-4.0000000000000009
20
-25.000000000000004
10
-3.9999999999999991
20
-48.500000000000014
42
-0.41421356237309509
10
-6.0000000000000009
20
-50.500000000000014
42
0.99999999999999989
10
-6.0000000000000018
20
-55.500000000000014
42
-0.41421356237309515
0
CIRCLE
5
122
100
AcDbEntity
8
0
100
AcDbCircle
10
-17
20
-25.000000000000004
30
0
40
1.6000000000000014
210
0
220
-0
230
1
0
CIRCLE
5
123
100
AcDbEntity
8
0
100
AcDbCircle
10
-44.299999999999997
20
-74.800000000000011
30
0
40
1.6000000000000014
210
0
220
-0
230
1
0
ARC
5
124
100
AcDbEntity
8
0
100
AcDbCircle
10
-108.0611517127433
20
-127.00000000000001
30
0
40
1.9999999999999929
210
0
220
0
230
1
100
AcDbArc
50
180
51
270
0
LINE
5
125
100
AcDbEntity
8
0
100
AcDbLine
10
-108.0611517127433
20
-129
30
0
11
-3.9999999999999858
21
-129
31
0
0
ARC
5
126
100
AcDbEntity
8
0
100
AcDbCircle
10
-3.9999999999999858
20
-127.00000000000001
30
0
40
1.9999999999999751
210
0
220
0
230
1
100
AcDbArc
50
-90
51
0
0
LINE
5
127
100
AcDbEntity
8
0
100
AcDbLine
10
-1.9999999999999929
20
-127.00000000000001
30
0
11
-2.0000000000000036
21
-23.000000000000007
31
0
0
ARC
5
128
100
AcDbEntity
8
0
100
AcDbCircle
10
-4.0000000000000053
20
-23.000000000000007
30
0
40
2.0000000000000013
210
0
220
0
230
1
100
AcDbArc
50
0
51
89.999999999999972
0
LINE
5
129
100
AcDbEntity
8
0
100
AcDbLine
10
-4.0000000000000044
20
-21.000000000000007
30
0
11
-65.23266210163402
21
-21
31
0
0
ARC
5
130
100
AcDbEntity
8
0
100
AcDbCircle
10
-69.232662101634034
20
-3.400000000000007
30
0
40
2.0000000000000195
210
0
220
-0
230
1
100
AcDbArc
50
0
51
90
0
LINE
5
131
100
AcDbEntity
8
0
100
AcDbLine
10
-69.232662101634034
20
-1.3999999999999964
30
0
11
-147.70000000000002
21
-1.4000000000000012
31
0
0
ARC
5
132
100
AcDbEntity
8
0
100
AcDbCircle
10
-147.70000000000002
20
-3.4000000000000004
30
0
40
1.9999999999999991
210
0
220
-0
230
1
100
AcDbArc
50
90
51
180
0
LINE
5
133
100
AcDbEntity
8
0
100
AcDbLine
10
-149.70000000000002
20
-3.4000000000000035
30
0
11
-149.70000000000002
21
-112.00000000000003
31
0
0
ARC
5
134
100
AcDbEntity
8
0
100
AcDbCircle
10
-147.70000000000005
20
-112.00000000000004
30
0
40
1.9999999999999574
210
0
220
0
230
1
100
AcDbArc
50
180
51
270.0000000000008
0
LINE
5
135
100
AcDbEntity
8
0
100
AcDbLine
10
-147.70000000000002
20
-114
30
0
11
-112.06115171274328
21
-114
31
0
0
ARC
5
136
100
AcDbEntity
8
0
100
AcDbCircle
10
-112.06115171274328
20
-116
30
0
40
1.9999999999999929
210
0
220
0
230
1
100
AcDbArc
50
0
51
90
0
LINE
5
137
100
AcDbEntity
8
0
100
AcDbLine
10
-110.0611517127433
20
-116
30
0
11
-110.0611517127433
21
-127.00000000000001
31
0
0
LINE
5
138
100
AcDbEntity
8
0
100
AcDbLine
10
-69.23266210163402
20
-5.9999999999999982
30
0
11
-67.23266210163402
21
-6.0000000000000009
31
0
0
LINE
5
139
100
AcDbEntity
8
0
100
AcDbLine
10
-67.23266210163402
20
-3.400000000000003
30
0
11
-67.23266210163402
21
-6.0000000000000009
31
0
0
LINE
5
140
100
AcDbEntity
8
0
100
AcDbLine
10
-65.23266210163402
20
-21
30
0
11
-71.23266210163402
21
-21
31
0
0
LINE
5
141
100
AcDbEntity
8
0
100
AcDbLine
10
-69.23266210163402
20
-5.4000000000000021
30
0
11
-69.23266210163402
21
-5.9999999999999982
31
0
0
ENDSEC
0
SECTION
2
OBJECTS
0
DICTIONARY
5
C
100
AcDbDictionary
3
ACAD_GROUP
350
D
3
ACAD_MLINESTYLE
350
17
0
DICTIONARY
5
D
100
AcDbDictionary
0
DICTIONARY
5
1A
330
C
100
AcDbDictionary
0
DICTIONARY
5
17
100
AcDbDictionary
0
ENDSEC
0
EOF
